%TF.GenerationSoftware,KiCad,Pcbnew,8.0.4-8.0.4-0~ubuntu22.04.1*%
%TF.CreationDate,2024-08-24T01:42:33-03:00*%
%TF.ProjectId,Anteres-Receiver,416e7465-7265-4732-9d52-656365697665,1.0.1*%
%TF.SameCoordinates,Original*%
%TF.FileFunction,Legend,Bot*%
%TF.FilePolarity,Positive*%
%FSLAX46Y46*%
G04 Gerber Fmt 4.6, Leading zero omitted, Abs format (unit mm)*
G04 Created by KiCad (PCBNEW 8.0.4-8.0.4-0~ubuntu22.04.1) date 2024-08-24 01:42:33*
%MOMM*%
%LPD*%
G01*
G04 APERTURE LIST*
%ADD10C,0.150000*%
%ADD11C,0.120000*%
G04 APERTURE END LIST*
D10*
X162285713Y-89357200D02*
X162142856Y-89404819D01*
X162142856Y-89404819D02*
X161904761Y-89404819D01*
X161904761Y-89404819D02*
X161809523Y-89357200D01*
X161809523Y-89357200D02*
X161761904Y-89309580D01*
X161761904Y-89309580D02*
X161714285Y-89214342D01*
X161714285Y-89214342D02*
X161714285Y-89119104D01*
X161714285Y-89119104D02*
X161761904Y-89023866D01*
X161761904Y-89023866D02*
X161809523Y-88976247D01*
X161809523Y-88976247D02*
X161904761Y-88928628D01*
X161904761Y-88928628D02*
X162095237Y-88881009D01*
X162095237Y-88881009D02*
X162190475Y-88833390D01*
X162190475Y-88833390D02*
X162238094Y-88785771D01*
X162238094Y-88785771D02*
X162285713Y-88690533D01*
X162285713Y-88690533D02*
X162285713Y-88595295D01*
X162285713Y-88595295D02*
X162238094Y-88500057D01*
X162238094Y-88500057D02*
X162190475Y-88452438D01*
X162190475Y-88452438D02*
X162095237Y-88404819D01*
X162095237Y-88404819D02*
X161857142Y-88404819D01*
X161857142Y-88404819D02*
X161714285Y-88452438D01*
X161380951Y-88404819D02*
X161142856Y-89404819D01*
X161142856Y-89404819D02*
X160952380Y-88690533D01*
X160952380Y-88690533D02*
X160761904Y-89404819D01*
X160761904Y-89404819D02*
X160523809Y-88404819D01*
X160190475Y-88500057D02*
X160142856Y-88452438D01*
X160142856Y-88452438D02*
X160047618Y-88404819D01*
X160047618Y-88404819D02*
X159809523Y-88404819D01*
X159809523Y-88404819D02*
X159714285Y-88452438D01*
X159714285Y-88452438D02*
X159666666Y-88500057D01*
X159666666Y-88500057D02*
X159619047Y-88595295D01*
X159619047Y-88595295D02*
X159619047Y-88690533D01*
X159619047Y-88690533D02*
X159666666Y-88833390D01*
X159666666Y-88833390D02*
X160238094Y-89404819D01*
X160238094Y-89404819D02*
X159619047Y-89404819D01*
X158999999Y-88404819D02*
X158904761Y-88404819D01*
X158904761Y-88404819D02*
X158809523Y-88452438D01*
X158809523Y-88452438D02*
X158761904Y-88500057D01*
X158761904Y-88500057D02*
X158714285Y-88595295D01*
X158714285Y-88595295D02*
X158666666Y-88785771D01*
X158666666Y-88785771D02*
X158666666Y-89023866D01*
X158666666Y-89023866D02*
X158714285Y-89214342D01*
X158714285Y-89214342D02*
X158761904Y-89309580D01*
X158761904Y-89309580D02*
X158809523Y-89357200D01*
X158809523Y-89357200D02*
X158904761Y-89404819D01*
X158904761Y-89404819D02*
X158999999Y-89404819D01*
X158999999Y-89404819D02*
X159095237Y-89357200D01*
X159095237Y-89357200D02*
X159142856Y-89309580D01*
X159142856Y-89309580D02*
X159190475Y-89214342D01*
X159190475Y-89214342D02*
X159238094Y-89023866D01*
X159238094Y-89023866D02*
X159238094Y-88785771D01*
X159238094Y-88785771D02*
X159190475Y-88595295D01*
X159190475Y-88595295D02*
X159142856Y-88500057D01*
X159142856Y-88500057D02*
X159095237Y-88452438D01*
X159095237Y-88452438D02*
X158999999Y-88404819D01*
X157714285Y-89404819D02*
X158285713Y-89404819D01*
X157999999Y-89404819D02*
X157999999Y-88404819D01*
X157999999Y-88404819D02*
X158095237Y-88547676D01*
X158095237Y-88547676D02*
X158190475Y-88642914D01*
X158190475Y-88642914D02*
X158285713Y-88690533D01*
D11*
%TO.C,SW201*%
X156770000Y-89770000D02*
X163230000Y-89770000D01*
X156770000Y-89800000D02*
X156770000Y-89770000D01*
X156770000Y-94300000D02*
X156770000Y-91700000D01*
X156770000Y-96200000D02*
X156770000Y-96230000D01*
X156770000Y-96230000D02*
X163230000Y-96230000D01*
X163230000Y-89770000D02*
X163230000Y-89800000D01*
X163230000Y-94300000D02*
X163230000Y-91700000D01*
X163230000Y-96200000D02*
X163230000Y-96230000D01*
%TD*%
M02*
