%TF.GenerationSoftware,KiCad,Pcbnew,8.0.4-8.0.4-0~ubuntu22.04.1*%
%TF.CreationDate,2024-08-24T01:42:33-03:00*%
%TF.ProjectId,Anteres-Receiver,416e7465-7265-4732-9d52-656365697665,1.0.1*%
%TF.SameCoordinates,Original*%
%TF.FileFunction,Copper,L2,Bot*%
%TF.FilePolarity,Positive*%
%FSLAX46Y46*%
G04 Gerber Fmt 4.6, Leading zero omitted, Abs format (unit mm)*
G04 Created by KiCad (PCBNEW 8.0.4-8.0.4-0~ubuntu22.04.1) date 2024-08-24 01:42:33*
%MOMM*%
%LPD*%
G01*
G04 APERTURE LIST*
G04 Aperture macros list*
%AMRoundRect*
0 Rectangle with rounded corners*
0 $1 Rounding radius*
0 $2 $3 $4 $5 $6 $7 $8 $9 X,Y pos of 4 corners*
0 Add a 4 corners polygon primitive as box body*
4,1,4,$2,$3,$4,$5,$6,$7,$8,$9,$2,$3,0*
0 Add four circle primitives for the rounded corners*
1,1,$1+$1,$2,$3*
1,1,$1+$1,$4,$5*
1,1,$1+$1,$6,$7*
1,1,$1+$1,$8,$9*
0 Add four rect primitives between the rounded corners*
20,1,$1+$1,$2,$3,$4,$5,0*
20,1,$1+$1,$4,$5,$6,$7,0*
20,1,$1+$1,$6,$7,$8,$9,0*
20,1,$1+$1,$8,$9,$2,$3,0*%
G04 Aperture macros list end*
%TA.AperFunction,EtchedComponent*%
%ADD10C,1.000000*%
%TD*%
%TA.AperFunction,HeatsinkPad*%
%ADD11C,0.500000*%
%TD*%
%TA.AperFunction,HeatsinkPad*%
%ADD12R,2.500000X2.500000*%
%TD*%
%TA.AperFunction,ComponentPad*%
%ADD13C,1.000000*%
%TD*%
%TA.AperFunction,SMDPad,CuDef*%
%ADD14RoundRect,0.375000X1.125000X-4.625000X1.125000X4.625000X-1.125000X4.625000X-1.125000X-4.625000X0*%
%TD*%
%TA.AperFunction,ComponentPad*%
%ADD15R,1.700000X1.700000*%
%TD*%
%TA.AperFunction,ComponentPad*%
%ADD16O,1.700000X1.700000*%
%TD*%
%TA.AperFunction,SMDPad,CuDef*%
%ADD17R,1.550000X1.300000*%
%TD*%
%TA.AperFunction,ViaPad*%
%ADD18C,0.600000*%
%TD*%
%TA.AperFunction,ViaPad*%
%ADD19C,0.500000*%
%TD*%
%TA.AperFunction,Conductor*%
%ADD20C,0.200000*%
%TD*%
%TA.AperFunction,Conductor*%
%ADD21C,0.150000*%
%TD*%
%TA.AperFunction,Conductor*%
%ADD22C,0.500000*%
%TD*%
%TA.AperFunction,Conductor*%
%ADD23C,0.300000*%
%TD*%
%TA.AperFunction,Conductor*%
%ADD24C,0.250000*%
%TD*%
G04 APERTURE END LIST*
D10*
%TO.C,AE401*%
X154750000Y-114950000D02*
X153750000Y-113950000D01*
X154750000Y-117950000D02*
X154750000Y-114950000D01*
X155750000Y-118950000D02*
X154750000Y-117950000D01*
X156750000Y-114950000D02*
X155750000Y-113950000D01*
X156750000Y-117950000D02*
X156750000Y-114950000D01*
X157750000Y-118950000D02*
X156750000Y-117950000D01*
X158750000Y-114950000D02*
X157750000Y-113950000D01*
X158750000Y-117950000D02*
X158750000Y-114950000D01*
X159750000Y-118950000D02*
X158750000Y-117950000D01*
X160750000Y-114950000D02*
X159750000Y-113950000D01*
X160750000Y-117950000D02*
X160750000Y-114950000D01*
X161750000Y-118950000D02*
X160750000Y-117950000D01*
X162750000Y-114950000D02*
X161750000Y-113950000D01*
X162750000Y-117950000D02*
X162750000Y-114950000D01*
X163750000Y-118950000D02*
X162750000Y-117950000D01*
X164750000Y-114950000D02*
X163750000Y-113950000D01*
X164750000Y-117950000D02*
X164750000Y-114950000D01*
X165750000Y-118950000D02*
X164750000Y-117950000D01*
X166750000Y-114950000D02*
X165750000Y-113950000D01*
X166750000Y-117950000D02*
X166750000Y-114950000D01*
X167750000Y-118950000D02*
X166750000Y-117950000D01*
X168750000Y-114950000D02*
X167750000Y-113950000D01*
X168750000Y-117950000D02*
X168750000Y-114950000D01*
X169750000Y-118950000D02*
X168750000Y-117950000D01*
X170750000Y-114950000D02*
X169750000Y-113950000D01*
X170750000Y-117950000D02*
X170750000Y-114950000D01*
X171750000Y-118950000D02*
X170750000Y-117950000D01*
%TD*%
D11*
%TO.P,U401,21,PAD*%
%TO.N,GND*%
X159625000Y-99125000D03*
X157625000Y-99125000D03*
D12*
X158625000Y-100125000D03*
D11*
X159625000Y-101125000D03*
X157625000Y-101125000D03*
%TD*%
D13*
%TO.P,AE401,*%
%TO.N,*%
X171750000Y-118950000D03*
X169750000Y-118950000D03*
X169750000Y-113950000D03*
X167750000Y-118950000D03*
X167750000Y-113950000D03*
X165750000Y-118950000D03*
X165750000Y-113950000D03*
X163750000Y-118950000D03*
X163750000Y-113950000D03*
X161750000Y-118950000D03*
X161750000Y-113950000D03*
X159750000Y-118950000D03*
X159750000Y-113950000D03*
X157750000Y-118950000D03*
X157750000Y-113950000D03*
X155750000Y-118950000D03*
X155750000Y-113950000D03*
X153750000Y-118950000D03*
X153750000Y-113950000D03*
%TD*%
D14*
%TO.P,J301,MP,MountPin*%
%TO.N,GND*%
X142250000Y-100000000D03*
%TD*%
D15*
%TO.P,J501,1,Pin_1*%
%TO.N,+3V3*%
X155210000Y-82500000D03*
D16*
%TO.P,J501,2,Pin_2*%
%TO.N,/Debugging/TX*%
X157750000Y-82500000D03*
%TO.P,J501,3,Pin_3*%
%TO.N,/Debugging/RX*%
X160289999Y-82500000D03*
%TO.P,J501,4,Pin_4*%
%TO.N,/Debugging/~{RST}*%
X162830000Y-82500000D03*
%TO.P,J501,5,Pin_5*%
%TO.N,/Debugging/SWDIO*%
X165370000Y-82500000D03*
%TO.P,J501,6,Pin_6*%
%TO.N,/Debugging/SWCLK*%
X167910000Y-82500000D03*
%TO.P,J501,7,Pin_7*%
%TO.N,GND*%
X170450000Y-82500000D03*
%TD*%
D17*
%TO.P,SW201,1,A*%
%TO.N,Net-(SW201-A)*%
X163975000Y-90750000D03*
X156025000Y-90750000D03*
%TO.P,SW201,2,B*%
%TO.N,GND*%
X163975000Y-95250000D03*
X156025000Y-95250000D03*
%TD*%
D18*
%TO.N,+3V3*%
X158100000Y-97200000D03*
D19*
%TO.N,GND*%
X165000000Y-100000000D03*
X152500000Y-84750000D03*
X171500000Y-100400000D03*
X151200000Y-106800000D03*
X159000000Y-103600000D03*
X152250000Y-81000000D03*
X166500000Y-99400000D03*
X169100000Y-100300000D03*
X150000000Y-107750000D03*
X149500000Y-101500000D03*
X150000000Y-99250000D03*
X144700000Y-117900000D03*
X149500000Y-88300000D03*
X168100000Y-106900000D03*
X173200000Y-105000000D03*
X157300000Y-105200000D03*
X141600000Y-117900000D03*
X155400000Y-102800000D03*
X167400000Y-99700000D03*
X179400000Y-106100000D03*
X151944951Y-94297833D03*
X167800000Y-105400000D03*
X146200000Y-80600000D03*
X145500000Y-98250000D03*
X174000000Y-105900000D03*
X150000000Y-102500000D03*
X142500000Y-90000000D03*
X162200000Y-102800000D03*
X145500000Y-94750000D03*
X171900000Y-86400000D03*
X157948894Y-96465377D03*
X169000000Y-101000000D03*
X179200000Y-106900000D03*
X174200000Y-106800000D03*
X165600002Y-107000000D03*
X175100000Y-106900000D03*
X149300000Y-91400000D03*
X173500000Y-106500000D03*
X170800000Y-100400000D03*
X167000000Y-102900000D03*
X142750000Y-81500000D03*
X154800000Y-103600000D03*
X149000000Y-95000000D03*
X167000000Y-107000000D03*
X176000000Y-106900000D03*
X156800002Y-107000000D03*
X173300000Y-100800000D03*
X162300000Y-92000000D03*
X151500000Y-90300000D03*
X159200000Y-91000000D03*
X168800000Y-105900000D03*
X154800000Y-105200000D03*
X168500000Y-102900000D03*
X169200000Y-81600000D03*
X168200000Y-101000000D03*
X142250000Y-106000000D03*
X160600000Y-103400000D03*
X177750000Y-97000000D03*
X152800000Y-104800000D03*
X178800000Y-88800000D03*
X168600000Y-99700000D03*
X179400000Y-90600000D03*
X145000000Y-86500000D03*
X179400000Y-93800000D03*
X151250000Y-95750000D03*
X147200000Y-90300000D03*
X174250000Y-95500000D03*
X179250000Y-97000000D03*
X171400000Y-83800000D03*
X172300000Y-100400000D03*
X152200000Y-106900000D03*
X150000000Y-106000000D03*
X152900000Y-85800000D03*
X172900000Y-80600000D03*
X150000000Y-109500000D03*
X169100000Y-106900000D03*
X165600000Y-105600000D03*
X176500000Y-87500000D03*
X162400000Y-105000000D03*
X169600000Y-105000000D03*
X159800002Y-107000000D03*
X152500000Y-100750000D03*
X177900000Y-104400000D03*
X170400000Y-99700000D03*
X173200000Y-102500000D03*
X160700000Y-105100000D03*
X155400000Y-106600000D03*
X179500000Y-97800000D03*
X155400000Y-105800000D03*
X173200000Y-103300000D03*
X167500000Y-101000000D03*
X150000000Y-111250000D03*
X158800000Y-107000000D03*
X179500000Y-88200000D03*
X160600000Y-102600000D03*
X154000000Y-88500000D03*
X173200000Y-105700000D03*
X161800000Y-97600000D03*
X173200000Y-104100000D03*
X163100000Y-85700000D03*
X160800000Y-107000000D03*
X154200000Y-106900000D03*
X159000000Y-105200000D03*
X142250000Y-109750000D03*
X174000000Y-105200000D03*
X174000000Y-104200000D03*
X171300000Y-99700000D03*
X150000000Y-104500000D03*
X161400000Y-103200000D03*
X176250000Y-94000000D03*
X165000000Y-102000000D03*
X154200000Y-90200000D03*
X179500000Y-86500000D03*
X154750000Y-95500000D03*
X170006493Y-95975000D03*
X170900000Y-107000000D03*
X165000000Y-100800000D03*
X157800000Y-107000000D03*
X165100000Y-93200000D03*
X156563909Y-97813909D03*
X142250000Y-94000000D03*
X156000000Y-107000000D03*
X169200000Y-83200000D03*
X174000000Y-102000000D03*
X172000000Y-99700000D03*
X153800000Y-103800000D03*
X167200000Y-100300000D03*
X169900000Y-100400000D03*
X169800000Y-101000000D03*
X165500000Y-104400000D03*
X169800000Y-106000000D03*
X142500000Y-86000000D03*
X168800000Y-90900000D03*
X179500000Y-92300000D03*
X173800000Y-101200000D03*
X156000000Y-102400000D03*
X177200000Y-90200000D03*
X179500000Y-101700000D03*
X165700000Y-92600000D03*
X167400000Y-106200000D03*
X165700000Y-99400000D03*
X177000000Y-106900000D03*
X150000000Y-113500000D03*
X169600000Y-99700000D03*
X170100000Y-107000000D03*
X164800000Y-102700000D03*
X164000000Y-104400000D03*
X164000000Y-105600000D03*
X179300000Y-80800000D03*
X164000000Y-102700000D03*
X178100000Y-106900000D03*
X145500000Y-105250000D03*
X168400000Y-100300000D03*
X159600000Y-103000000D03*
X173300000Y-101700000D03*
X174250000Y-94250000D03*
X178000000Y-94000000D03*
X174000000Y-103000000D03*
X168500000Y-104700000D03*
X153800000Y-80700000D03*
X163200000Y-102600000D03*
X153200000Y-106900000D03*
X154300000Y-91500000D03*
X145500000Y-101750000D03*
X161800000Y-107000000D03*
X165500000Y-103100000D03*
X171700000Y-91600000D03*
X163800000Y-93400000D03*
X172900000Y-107000000D03*
X154800000Y-104400000D03*
%TO.N,+3V3*%
X153750000Y-97875000D03*
X151799998Y-93575000D03*
X163000000Y-99250000D03*
X163000000Y-101000000D03*
X156600000Y-101800000D03*
X155347507Y-100675000D03*
X167500000Y-98250000D03*
X153000000Y-88500000D03*
%TO.N,/MCU/PS2_ACK*%
X146750000Y-110250000D03*
X163600000Y-92500000D03*
%TO.N,/MCU/PS2_SCK*%
X146750000Y-106750000D03*
X160700000Y-90900000D03*
%TO.N,/MCU/PS2_ATT*%
X147175000Y-103458463D03*
X162400000Y-91000000D03*
%TO.N,/MCU/PS2_CMD*%
X162000000Y-88600000D03*
X146500000Y-96000000D03*
%TO.N,/MCU/PS2_DATA*%
X147059287Y-92500000D03*
X163000000Y-89200000D03*
%TO.N,/Debugging/~{RST}*%
X169500000Y-92000000D03*
%TO.N,/Debugging/DBG_SWCLK*%
X162250000Y-84250000D03*
X154999998Y-88525000D03*
%TO.N,Net-(SW201-A)*%
X173400000Y-88100000D03*
%TO.N,/MCU/LED_B (TIM3_CH3)*%
X172500000Y-94250000D03*
X163500000Y-87750020D03*
%TO.N,/MCU/LED_G (TIM3_CH4)*%
X162500000Y-87750000D03*
X170646405Y-94741057D03*
%TO.N,/MCU/LED_R (TIM3_CH1)*%
X162700000Y-93600000D03*
X172200000Y-98800000D03*
%TO.N,/Debugging/DBG_SWDIO*%
X160750000Y-85000000D03*
X156000000Y-88525000D03*
%TO.N,/MCU/CC1101_GDO2*%
X158500422Y-95105230D03*
X158750000Y-96500014D03*
%TO.N,/MCU/CC1101_SCK*%
X161000000Y-97500000D03*
X159846907Y-97036075D03*
%TO.N,/MCU/CC1101_GDO0*%
X155642136Y-98200000D03*
X157500000Y-94700006D03*
%TD*%
D20*
%TO.N,+3V3*%
X162000000Y-98250000D02*
X157600000Y-98250000D01*
D21*
X158100000Y-97750000D02*
X157600000Y-98250000D01*
D20*
X157600000Y-98250000D02*
X157000000Y-98250000D01*
D21*
X158100000Y-97200000D02*
X158100000Y-97750000D01*
D22*
X155210000Y-86290000D02*
X153000000Y-88500000D01*
D23*
X163000000Y-101000000D02*
X163000000Y-99250000D01*
D20*
X155347507Y-100675000D02*
X156472507Y-101800000D01*
D22*
X151824998Y-93600000D02*
X151799998Y-93575000D01*
D20*
X153750000Y-99077493D02*
X153750000Y-97875000D01*
X163000000Y-99250000D02*
X162000000Y-98250000D01*
D22*
X167500000Y-98250000D02*
X164250000Y-98250000D01*
D20*
X157000000Y-98250000D02*
X156500000Y-98750000D01*
D22*
X155210000Y-82500000D02*
X155210000Y-86290000D01*
D20*
X156500000Y-98750000D02*
X154625000Y-98750000D01*
X154625000Y-98750000D02*
X153750000Y-97875000D01*
X155347507Y-100675000D02*
X153750000Y-99077493D01*
D22*
X159600000Y-93600000D02*
X151824998Y-93600000D01*
X164250000Y-98250000D02*
X159600000Y-93600000D01*
D20*
X156472507Y-101800000D02*
X156600000Y-101800000D01*
D24*
%TO.N,/MCU/PS2_ACK*%
X148400000Y-108600000D02*
X148400000Y-94100000D01*
X148400000Y-94100000D02*
X149500000Y-93000000D01*
X163100000Y-93000000D02*
X163600000Y-92500000D01*
X149500000Y-93000000D02*
X163100000Y-93000000D01*
X146750000Y-110250000D02*
X148400000Y-108600000D01*
%TO.N,/MCU/PS2_SCK*%
X146600000Y-103220290D02*
X146600000Y-106600000D01*
X160700000Y-90900000D02*
X159500000Y-92100000D01*
X147250000Y-102570290D02*
X146600000Y-103220290D01*
X147250000Y-93500000D02*
X147250000Y-102570290D01*
X148650000Y-92100000D02*
X147250000Y-93500000D01*
X159500000Y-92100000D02*
X148650000Y-92100000D01*
X146600000Y-106600000D02*
X146750000Y-106750000D01*
%TO.N,/MCU/PS2_ATT*%
X147950000Y-93800000D02*
X147950000Y-102683463D01*
X162400000Y-91000000D02*
X160800000Y-92600000D01*
X147950000Y-102683463D02*
X147175000Y-103458463D01*
X149150000Y-92600000D02*
X147950000Y-93800000D01*
X160800000Y-92600000D02*
X149150000Y-92600000D01*
%TO.N,/MCU/PS2_CMD*%
X149697918Y-89100000D02*
X161500000Y-89100000D01*
X146500000Y-92297918D02*
X149697918Y-89100000D01*
X161500000Y-89100000D02*
X162000000Y-88600000D01*
X146500000Y-96000000D02*
X146500000Y-92297918D01*
%TO.N,/MCU/PS2_DATA*%
X150059289Y-89499998D02*
X162700002Y-89499998D01*
X162700002Y-89499998D02*
X163000000Y-89200000D01*
X147059287Y-92500000D02*
X150059289Y-89499998D01*
D23*
%TO.N,/Debugging/~{RST}*%
X169500000Y-89000000D02*
X163000000Y-82500000D01*
X169500000Y-92000000D02*
X169500000Y-89000000D01*
X163000000Y-82500000D02*
X162830000Y-82500000D01*
D24*
%TO.N,/Debugging/DBG_SWCLK*%
X159499999Y-84250000D02*
X155224999Y-88525000D01*
X162250000Y-84250000D02*
X159499999Y-84250000D01*
X155224999Y-88525000D02*
X154999998Y-88525000D01*
%TO.N,Net-(SW201-A)*%
X165250000Y-90750000D02*
X169900000Y-95400000D01*
X157850000Y-90750000D02*
X156025000Y-90750000D01*
X173300000Y-94600000D02*
X173300000Y-88200000D01*
X169900000Y-95400000D02*
X172500000Y-95400000D01*
X162600000Y-90300000D02*
X158300000Y-90300000D01*
X158300000Y-90300000D02*
X157850000Y-90750000D01*
X163975000Y-90750000D02*
X163050000Y-90750000D01*
X163050000Y-90750000D02*
X162600000Y-90300000D01*
X163975000Y-90750000D02*
X165250000Y-90750000D01*
X172500000Y-95400000D02*
X173300000Y-94600000D01*
X173300000Y-88200000D02*
X173400000Y-88100000D01*
%TO.N,/MCU/LED_B (TIM3_CH3)*%
X164468541Y-87750020D02*
X163500000Y-87750020D01*
X170968521Y-94250000D02*
X164468541Y-87750020D01*
X172500000Y-94250000D02*
X170968521Y-94250000D01*
%TO.N,/MCU/LED_G (TIM3_CH4)*%
X164303900Y-88398552D02*
X170646405Y-94741057D01*
X162500000Y-87750000D02*
X163148552Y-88398552D01*
X163148552Y-88398552D02*
X164303900Y-88398552D01*
%TO.N,/MCU/LED_R (TIM3_CH1)*%
X163300000Y-94200000D02*
X162700000Y-93600000D01*
X167418320Y-94200000D02*
X163300000Y-94200000D01*
X172200000Y-98800000D02*
X172018320Y-98800000D01*
X172018320Y-98800000D02*
X167418320Y-94200000D01*
%TO.N,/Debugging/DBG_SWDIO*%
X157225000Y-88525000D02*
X156000000Y-88525000D01*
X160750000Y-85000000D02*
X157225000Y-88525000D01*
D20*
%TO.N,/MCU/CC1101_GDO2*%
X158500422Y-96250436D02*
X158750000Y-96500014D01*
X158500422Y-95105230D02*
X158500422Y-96250436D01*
%TO.N,/MCU/CC1101_SCK*%
X160310832Y-97500000D02*
X159846907Y-97036075D01*
X161000000Y-97500000D02*
X160310832Y-97500000D01*
%TO.N,/MCU/CC1101_GDO0*%
X155642136Y-97957864D02*
X157500000Y-96100000D01*
X155642136Y-98200000D02*
X155642136Y-97957864D01*
X157500000Y-96100000D02*
X157500000Y-94700006D01*
%TD*%
%TA.AperFunction,Conductor*%
%TO.N,GND*%
G36*
X155173048Y-89839850D02*
G01*
X155187400Y-89874498D01*
X155173048Y-89909146D01*
X155165627Y-89915237D01*
X155161769Y-89917815D01*
X155105447Y-89955447D01*
X155061134Y-90021768D01*
X155061133Y-90021769D01*
X155049500Y-90080252D01*
X155049500Y-91419748D01*
X155061133Y-91478231D01*
X155078882Y-91504795D01*
X155105447Y-91544552D01*
X155119318Y-91553820D01*
X155171769Y-91588867D01*
X155230252Y-91600500D01*
X155230255Y-91600500D01*
X156819748Y-91600500D01*
X156850055Y-91594471D01*
X156856556Y-91593626D01*
X156856998Y-91593599D01*
X156860177Y-91592661D01*
X156864464Y-91591605D01*
X156878231Y-91588867D01*
X156906914Y-91569700D01*
X156911349Y-91567065D01*
X156936609Y-91553819D01*
X157317641Y-91246063D01*
X157515343Y-91086381D01*
X157546131Y-91075500D01*
X157892856Y-91075500D01*
X157892856Y-91075499D01*
X157975639Y-91053318D01*
X158049862Y-91010465D01*
X158420475Y-90639852D01*
X158455123Y-90625500D01*
X160251935Y-90625500D01*
X160286583Y-90639852D01*
X160300935Y-90674500D01*
X160288599Y-90707007D01*
X160286497Y-90709377D01*
X160286493Y-90709382D01*
X160087250Y-91050157D01*
X160079598Y-91060073D01*
X159379525Y-91760148D01*
X159344877Y-91774500D01*
X148607144Y-91774500D01*
X148524362Y-91796681D01*
X148524359Y-91796682D01*
X148450137Y-91839535D01*
X147563905Y-92725767D01*
X147529257Y-92740119D01*
X147494609Y-92725767D01*
X147480257Y-92691119D01*
X147486956Y-92666389D01*
X147672035Y-92349840D01*
X147679683Y-92339929D01*
X150179763Y-89839850D01*
X150214411Y-89825498D01*
X155138400Y-89825498D01*
X155173048Y-89839850D01*
G37*
%TD.AperFunction*%
%TA.AperFunction,Conductor*%
G36*
X179785148Y-80214852D02*
G01*
X179799500Y-80249500D01*
X179799500Y-107201000D01*
X179785148Y-107235648D01*
X179750500Y-107250000D01*
X150750000Y-107250000D01*
X150750000Y-113479703D01*
X150735648Y-113514351D01*
X150170021Y-114079976D01*
X150135373Y-114094328D01*
X150108447Y-114086267D01*
X149965686Y-113992372D01*
X149952708Y-113983836D01*
X149885335Y-113950000D01*
X149650779Y-113832201D01*
X149333292Y-113716645D01*
X149333287Y-113716643D01*
X149333283Y-113716642D01*
X149215052Y-113688620D01*
X149004526Y-113638725D01*
X149004523Y-113638724D01*
X148860697Y-113621913D01*
X148668935Y-113599500D01*
X148331065Y-113599500D01*
X148163272Y-113619112D01*
X147995476Y-113638724D01*
X147995473Y-113638725D01*
X147666717Y-113716642D01*
X147666707Y-113716645D01*
X147349220Y-113832201D01*
X147047295Y-113983834D01*
X147047290Y-113983837D01*
X146765003Y-114169500D01*
X146506182Y-114386677D01*
X146274324Y-114632431D01*
X146072557Y-114903452D01*
X145903628Y-115196045D01*
X145903624Y-115196054D01*
X145769800Y-115506293D01*
X145672899Y-115829969D01*
X145614228Y-116162705D01*
X145594584Y-116499997D01*
X145594584Y-116500002D01*
X145614228Y-116837294D01*
X145672899Y-117170030D01*
X145769800Y-117493706D01*
X145769801Y-117493709D01*
X145769802Y-117493711D01*
X145903625Y-117803948D01*
X146072560Y-118096552D01*
X146081792Y-118108953D01*
X146090971Y-118145315D01*
X146077137Y-118172861D01*
X146014352Y-118235648D01*
X145979704Y-118250000D01*
X140249500Y-118250000D01*
X140214852Y-118235648D01*
X140200500Y-118201000D01*
X140200500Y-104662687D01*
X140550000Y-104662687D01*
X140564799Y-104775104D01*
X140622735Y-104914976D01*
X140622738Y-104914981D01*
X140714904Y-105035094D01*
X140714905Y-105035095D01*
X140835018Y-105127261D01*
X140835023Y-105127264D01*
X140974895Y-105185200D01*
X141087312Y-105200000D01*
X142150000Y-105200000D01*
X142350000Y-105200000D01*
X143412687Y-105200000D01*
X143525104Y-105185200D01*
X143664976Y-105127264D01*
X143664981Y-105127261D01*
X143785094Y-105035095D01*
X143785095Y-105035094D01*
X143877261Y-104914981D01*
X143877264Y-104914976D01*
X143935200Y-104775104D01*
X143950000Y-104662687D01*
X143950000Y-100100000D01*
X142350000Y-100100000D01*
X142350000Y-105200000D01*
X142150000Y-105200000D01*
X142150000Y-100100000D01*
X140550000Y-100100000D01*
X140550000Y-104662687D01*
X140200500Y-104662687D01*
X140200500Y-95337312D01*
X140550000Y-95337312D01*
X140550000Y-99900000D01*
X142150000Y-99900000D01*
X142350000Y-99900000D01*
X143950000Y-99900000D01*
X143950000Y-95999997D01*
X146044867Y-95999997D01*
X146044867Y-96000002D01*
X146063301Y-96128223D01*
X146103383Y-96215989D01*
X146117118Y-96246063D01*
X146201951Y-96343967D01*
X146310931Y-96414004D01*
X146380093Y-96434311D01*
X146435223Y-96450499D01*
X146435228Y-96450500D01*
X146564772Y-96450500D01*
X146564776Y-96450499D01*
X146610770Y-96436994D01*
X146689069Y-96414004D01*
X146798049Y-96343967D01*
X146838468Y-96297319D01*
X146872004Y-96280533D01*
X146907588Y-96292376D01*
X146924375Y-96325912D01*
X146924500Y-96329408D01*
X146924500Y-102415167D01*
X146910148Y-102449815D01*
X146339536Y-103020427D01*
X146339535Y-103020427D01*
X146296682Y-103094649D01*
X146296681Y-103094652D01*
X146276125Y-103171366D01*
X146276126Y-103171367D01*
X146274500Y-103177436D01*
X146274500Y-106297578D01*
X146274019Y-106304427D01*
X146270518Y-106329220D01*
X146274423Y-106398664D01*
X146274500Y-106401414D01*
X146274500Y-106642852D01*
X146290466Y-106702445D01*
X146292058Y-106712373D01*
X146294205Y-106750539D01*
X146295479Y-106755801D01*
X146296356Y-106760357D01*
X146313301Y-106878223D01*
X146367118Y-106996063D01*
X146451951Y-107093967D01*
X146560931Y-107164004D01*
X146630093Y-107184311D01*
X146685223Y-107200499D01*
X146685228Y-107200500D01*
X146814772Y-107200500D01*
X146814776Y-107200499D01*
X146835324Y-107194465D01*
X146939069Y-107164004D01*
X147048049Y-107093967D01*
X147132882Y-106996063D01*
X147186697Y-106878226D01*
X147186697Y-106878224D01*
X147186698Y-106878223D01*
X147205133Y-106750002D01*
X147205133Y-106749997D01*
X147186698Y-106621776D01*
X147157182Y-106557147D01*
X147132882Y-106503937D01*
X147096686Y-106462163D01*
X147089582Y-106451357D01*
X147084825Y-106441490D01*
X147084821Y-106441484D01*
X146935360Y-106243049D01*
X146925500Y-106213569D01*
X146925500Y-103920179D01*
X146939852Y-103885531D01*
X146974500Y-103871179D01*
X146988305Y-103873164D01*
X147110223Y-103908962D01*
X147110228Y-103908963D01*
X147239772Y-103908963D01*
X147239776Y-103908962D01*
X147260324Y-103902928D01*
X147364069Y-103872467D01*
X147473049Y-103802430D01*
X147557882Y-103704526D01*
X147574527Y-103668076D01*
X147582439Y-103655919D01*
X147588501Y-103649083D01*
X147588504Y-103649080D01*
X147787750Y-103308301D01*
X147795398Y-103298389D01*
X147990853Y-103102935D01*
X148025500Y-103088584D01*
X148060148Y-103102936D01*
X148074500Y-103137584D01*
X148074500Y-108444876D01*
X148060148Y-108479524D01*
X146910071Y-109629600D01*
X146900155Y-109637252D01*
X146559379Y-109836496D01*
X146559367Y-109836504D01*
X146558913Y-109836880D01*
X146554213Y-109840312D01*
X146451951Y-109906032D01*
X146367119Y-110003936D01*
X146367118Y-110003936D01*
X146313301Y-110121776D01*
X146294867Y-110249997D01*
X146294867Y-110250002D01*
X146313301Y-110378223D01*
X146347426Y-110452944D01*
X146367118Y-110496063D01*
X146451951Y-110593967D01*
X146560931Y-110664004D01*
X146630093Y-110684311D01*
X146685223Y-110700499D01*
X146685228Y-110700500D01*
X146814772Y-110700500D01*
X146814776Y-110700499D01*
X146835324Y-110694465D01*
X146939069Y-110664004D01*
X147048049Y-110593967D01*
X147132882Y-110496063D01*
X147149527Y-110459613D01*
X147157439Y-110447456D01*
X147163501Y-110440620D01*
X147163504Y-110440617D01*
X147362748Y-110099840D01*
X147370396Y-110089929D01*
X148660465Y-108799862D01*
X148703317Y-108725639D01*
X148703318Y-108725638D01*
X148725499Y-108642856D01*
X148725500Y-108642856D01*
X148725500Y-97874997D01*
X153294867Y-97874997D01*
X153294867Y-97875002D01*
X153313301Y-98003223D01*
X153321857Y-98021957D01*
X153325951Y-98036597D01*
X153326848Y-98044240D01*
X153447115Y-98415523D01*
X153449500Y-98430623D01*
X153449500Y-99117056D01*
X153456958Y-99144891D01*
X153469979Y-99193482D01*
X153486977Y-99222923D01*
X153486978Y-99222924D01*
X153509537Y-99262000D01*
X153509542Y-99262006D01*
X154742132Y-100494596D01*
X154751123Y-100506959D01*
X154928624Y-100854545D01*
X154928625Y-100854547D01*
X154939555Y-100868994D01*
X154945050Y-100878201D01*
X154964625Y-100921063D01*
X155049458Y-101018967D01*
X155158438Y-101089004D01*
X155158443Y-101089007D01*
X155161627Y-101090461D01*
X155161429Y-101090894D01*
X155165773Y-101092871D01*
X155165817Y-101092787D01*
X155167705Y-101093751D01*
X155167887Y-101093834D01*
X155167955Y-101093877D01*
X155167961Y-101093882D01*
X155259954Y-101140860D01*
X155265126Y-101143501D01*
X155265128Y-101143501D01*
X155504169Y-101265571D01*
X155515544Y-101271380D01*
X155527907Y-101280371D01*
X155956606Y-101709070D01*
X155965742Y-101721720D01*
X155968913Y-101728033D01*
X155968917Y-101728038D01*
X156253001Y-102092662D01*
X156259569Y-102100591D01*
X156260837Y-102102122D01*
X156261760Y-102103171D01*
X156262261Y-102103738D01*
X156270266Y-102109467D01*
X156278778Y-102117224D01*
X156301948Y-102143965D01*
X156301950Y-102143967D01*
X156371987Y-102188976D01*
X156410931Y-102214004D01*
X156485685Y-102235953D01*
X156535223Y-102250499D01*
X156535228Y-102250500D01*
X156664772Y-102250500D01*
X156664776Y-102250499D01*
X156685324Y-102244465D01*
X156789069Y-102214004D01*
X156898049Y-102143967D01*
X156982882Y-102046063D01*
X157036697Y-101928226D01*
X157036697Y-101928224D01*
X157036698Y-101928223D01*
X157055133Y-101800002D01*
X157055133Y-101799997D01*
X157036698Y-101671776D01*
X156992501Y-101575000D01*
X156982882Y-101553937D01*
X156941316Y-101505967D01*
X157385453Y-101505967D01*
X157436141Y-101538543D01*
X157560298Y-101574999D01*
X157560305Y-101575000D01*
X157689695Y-101575000D01*
X157689701Y-101574999D01*
X157813858Y-101538543D01*
X157864546Y-101505967D01*
X159385453Y-101505967D01*
X159436141Y-101538543D01*
X159560298Y-101574999D01*
X159560305Y-101575000D01*
X159689695Y-101575000D01*
X159689701Y-101574999D01*
X159813858Y-101538543D01*
X159864546Y-101505967D01*
X159625000Y-101266421D01*
X159385453Y-101505967D01*
X157864546Y-101505967D01*
X157625000Y-101266421D01*
X157385453Y-101505967D01*
X156941316Y-101505967D01*
X156898049Y-101456033D01*
X156789069Y-101385996D01*
X156789066Y-101385994D01*
X156757637Y-101376767D01*
X156749600Y-101373615D01*
X156748633Y-101373133D01*
X156736839Y-101367261D01*
X156633940Y-101339267D01*
X156375619Y-101268990D01*
X156353834Y-101256356D01*
X156222476Y-101124998D01*
X157170373Y-101124998D01*
X157170373Y-101125001D01*
X157188789Y-101253084D01*
X157241052Y-101367526D01*
X157483579Y-101125000D01*
X157483579Y-101124999D01*
X157463689Y-101105109D01*
X157525000Y-101105109D01*
X157525000Y-101144891D01*
X157540224Y-101181645D01*
X157568355Y-101209776D01*
X157605109Y-101225000D01*
X157644891Y-101225000D01*
X157681645Y-101209776D01*
X157709776Y-101181645D01*
X157725000Y-101144891D01*
X157725000Y-101124999D01*
X157766421Y-101124999D01*
X157766421Y-101125000D01*
X158008946Y-101367525D01*
X158061210Y-101253084D01*
X158079627Y-101125001D01*
X158079627Y-101124998D01*
X159170373Y-101124998D01*
X159170373Y-101125001D01*
X159188789Y-101253084D01*
X159241052Y-101367526D01*
X159483579Y-101125000D01*
X159483579Y-101124999D01*
X159463689Y-101105109D01*
X159525000Y-101105109D01*
X159525000Y-101144891D01*
X159540224Y-101181645D01*
X159568355Y-101209776D01*
X159605109Y-101225000D01*
X159644891Y-101225000D01*
X159681645Y-101209776D01*
X159709776Y-101181645D01*
X159725000Y-101144891D01*
X159725000Y-101124999D01*
X159766421Y-101124999D01*
X159766421Y-101125000D01*
X160008946Y-101367525D01*
X160061210Y-101253084D01*
X160079627Y-101125001D01*
X160079627Y-101124998D01*
X160061210Y-100996915D01*
X160008946Y-100882473D01*
X159766421Y-101124999D01*
X159725000Y-101124999D01*
X159725000Y-101105109D01*
X159709776Y-101068355D01*
X159681645Y-101040224D01*
X159644891Y-101025000D01*
X159605109Y-101025000D01*
X159568355Y-101040224D01*
X159540224Y-101068355D01*
X159525000Y-101105109D01*
X159463689Y-101105109D01*
X159241052Y-100882472D01*
X159241051Y-100882472D01*
X159188789Y-100996915D01*
X159170373Y-101124998D01*
X158079627Y-101124998D01*
X158061210Y-100996915D01*
X158008946Y-100882473D01*
X157766421Y-101124999D01*
X157725000Y-101124999D01*
X157725000Y-101105109D01*
X157709776Y-101068355D01*
X157681645Y-101040224D01*
X157644891Y-101025000D01*
X157605109Y-101025000D01*
X157568355Y-101040224D01*
X157540224Y-101068355D01*
X157525000Y-101105109D01*
X157463689Y-101105109D01*
X157241052Y-100882472D01*
X157241051Y-100882472D01*
X157188789Y-100996915D01*
X157170373Y-101124998D01*
X156222476Y-101124998D01*
X155952878Y-100855400D01*
X155943887Y-100843037D01*
X155893329Y-100744032D01*
X157385453Y-100744032D01*
X157625000Y-100983579D01*
X157625001Y-100983579D01*
X157864546Y-100744032D01*
X159385453Y-100744032D01*
X159625000Y-100983579D01*
X159625001Y-100983579D01*
X159864546Y-100744032D01*
X159864545Y-100744031D01*
X159813857Y-100711455D01*
X159689701Y-100675000D01*
X159560298Y-100675000D01*
X159436143Y-100711455D01*
X159385453Y-100744032D01*
X157864546Y-100744032D01*
X157864545Y-100744031D01*
X157813857Y-100711455D01*
X157689701Y-100675000D01*
X157560298Y-100675000D01*
X157436143Y-100711455D01*
X157385453Y-100744032D01*
X155893329Y-100744032D01*
X155876693Y-100711455D01*
X155766390Y-100495456D01*
X155755458Y-100481007D01*
X155749963Y-100471799D01*
X155747569Y-100466556D01*
X155730389Y-100428937D01*
X155645556Y-100331033D01*
X155536576Y-100260996D01*
X155536575Y-100260995D01*
X155536571Y-100260993D01*
X155533388Y-100259539D01*
X155533576Y-100259126D01*
X155529234Y-100257134D01*
X155529195Y-100257211D01*
X155527364Y-100256276D01*
X155527146Y-100256176D01*
X155527058Y-100256120D01*
X155179466Y-100078616D01*
X155167103Y-100069625D01*
X154603445Y-99505967D01*
X157385453Y-99505967D01*
X157436141Y-99538543D01*
X157560298Y-99574999D01*
X157560305Y-99575000D01*
X157689695Y-99575000D01*
X157689701Y-99574999D01*
X157813858Y-99538543D01*
X157864546Y-99505967D01*
X159385453Y-99505967D01*
X159436141Y-99538543D01*
X159560298Y-99574999D01*
X159560305Y-99575000D01*
X159689695Y-99575000D01*
X159689701Y-99574999D01*
X159813858Y-99538543D01*
X159864546Y-99505967D01*
X159625000Y-99266421D01*
X159385453Y-99505967D01*
X157864546Y-99505967D01*
X157625000Y-99266421D01*
X157385453Y-99505967D01*
X154603445Y-99505967D01*
X154222476Y-99124998D01*
X157170373Y-99124998D01*
X157170373Y-99125001D01*
X157188789Y-99253084D01*
X157241052Y-99367526D01*
X157483579Y-99125000D01*
X157483579Y-99124999D01*
X157463689Y-99105109D01*
X157525000Y-99105109D01*
X157525000Y-99144891D01*
X157540224Y-99181645D01*
X157568355Y-99209776D01*
X157605109Y-99225000D01*
X157644891Y-99225000D01*
X157681645Y-99209776D01*
X157709776Y-99181645D01*
X157725000Y-99144891D01*
X157725000Y-99124999D01*
X157766421Y-99124999D01*
X157766421Y-99125000D01*
X158008946Y-99367525D01*
X158061210Y-99253084D01*
X158079627Y-99125001D01*
X158079627Y-99124998D01*
X159170373Y-99124998D01*
X159170373Y-99125001D01*
X159188789Y-99253084D01*
X159241052Y-99367526D01*
X159483579Y-99125000D01*
X159483579Y-99124999D01*
X159463689Y-99105109D01*
X159525000Y-99105109D01*
X159525000Y-99144891D01*
X159540224Y-99181645D01*
X159568355Y-99209776D01*
X159605109Y-99225000D01*
X159644891Y-99225000D01*
X159681645Y-99209776D01*
X159709776Y-99181645D01*
X159725000Y-99144891D01*
X159725000Y-99124999D01*
X159766421Y-99124999D01*
X159766421Y-99125000D01*
X160008946Y-99367525D01*
X160061210Y-99253084D01*
X160079627Y-99125001D01*
X160079627Y-99124998D01*
X160061210Y-98996915D01*
X160008946Y-98882473D01*
X159766421Y-99124999D01*
X159725000Y-99124999D01*
X159725000Y-99105109D01*
X159709776Y-99068355D01*
X159681645Y-99040224D01*
X159644891Y-99025000D01*
X159605109Y-99025000D01*
X159568355Y-99040224D01*
X159540224Y-99068355D01*
X159525000Y-99105109D01*
X159463689Y-99105109D01*
X159241052Y-98882472D01*
X159241051Y-98882472D01*
X159188789Y-98996915D01*
X159170373Y-99124998D01*
X158079627Y-99124998D01*
X158061210Y-98996915D01*
X158008946Y-98882473D01*
X157766421Y-99124999D01*
X157725000Y-99124999D01*
X157725000Y-99105109D01*
X157709776Y-99068355D01*
X157681645Y-99040224D01*
X157644891Y-99025000D01*
X157605109Y-99025000D01*
X157568355Y-99040224D01*
X157540224Y-99068355D01*
X157525000Y-99105109D01*
X157463689Y-99105109D01*
X157241052Y-98882472D01*
X157241051Y-98882472D01*
X157188789Y-98996915D01*
X157170373Y-99124998D01*
X154222476Y-99124998D01*
X154064852Y-98967374D01*
X154050500Y-98932726D01*
X154050500Y-98718767D01*
X154064852Y-98684119D01*
X154099500Y-98669767D01*
X154134148Y-98684119D01*
X154384540Y-98934511D01*
X154440489Y-98990460D01*
X154509011Y-99030021D01*
X154544478Y-99039524D01*
X154585436Y-99050500D01*
X154585438Y-99050500D01*
X156539564Y-99050500D01*
X156566230Y-99043354D01*
X156615989Y-99030021D01*
X156684511Y-98990460D01*
X156740460Y-98934511D01*
X156930939Y-98744032D01*
X157385453Y-98744032D01*
X157625000Y-98983579D01*
X157625001Y-98983579D01*
X157864546Y-98744032D01*
X159385453Y-98744032D01*
X159625000Y-98983579D01*
X159625001Y-98983579D01*
X159864546Y-98744032D01*
X159864545Y-98744031D01*
X159813857Y-98711455D01*
X159689701Y-98675000D01*
X159560298Y-98675000D01*
X159436143Y-98711455D01*
X159385453Y-98744032D01*
X157864546Y-98744032D01*
X157864545Y-98744031D01*
X157813857Y-98711455D01*
X157689701Y-98675000D01*
X157560298Y-98675000D01*
X157436143Y-98711455D01*
X157385453Y-98744032D01*
X156930939Y-98744032D01*
X157110119Y-98564852D01*
X157144767Y-98550500D01*
X157560438Y-98550500D01*
X161855233Y-98550500D01*
X161889881Y-98564852D01*
X162394625Y-99069596D01*
X162403616Y-99081959D01*
X162570025Y-99407826D01*
X162574432Y-99420489D01*
X162605375Y-99575000D01*
X162643827Y-99767014D01*
X162643828Y-99767019D01*
X162646619Y-99780954D01*
X162646620Y-99780957D01*
X162646621Y-99780961D01*
X162647103Y-99782696D01*
X162646929Y-99782744D01*
X162649500Y-99797508D01*
X162649500Y-100452339D01*
X162646673Y-100466556D01*
X162647318Y-100466753D01*
X162646617Y-100469050D01*
X162569167Y-100855805D01*
X162565695Y-100866534D01*
X162563302Y-100871775D01*
X162544867Y-100999997D01*
X162544867Y-101000002D01*
X162563301Y-101128223D01*
X162617118Y-101246063D01*
X162634021Y-101265571D01*
X162701951Y-101343967D01*
X162810931Y-101414004D01*
X162880093Y-101434311D01*
X162935223Y-101450499D01*
X162935228Y-101450500D01*
X163064772Y-101450500D01*
X163064776Y-101450499D01*
X163085324Y-101444465D01*
X163189069Y-101414004D01*
X163298049Y-101343967D01*
X163382882Y-101246063D01*
X163436697Y-101128226D01*
X163436697Y-101128224D01*
X163436698Y-101128223D01*
X163455133Y-101000002D01*
X163455133Y-100999997D01*
X163436697Y-100871774D01*
X163434307Y-100866539D01*
X163430833Y-100855807D01*
X163358670Y-100495456D01*
X163353382Y-100469051D01*
X163353377Y-100469037D01*
X163352902Y-100467327D01*
X163353030Y-100467291D01*
X163353029Y-100467286D01*
X163353071Y-100467277D01*
X163350500Y-100452495D01*
X163350500Y-99797660D01*
X163353337Y-99783451D01*
X163352680Y-99783251D01*
X163353377Y-99780960D01*
X163353382Y-99780949D01*
X163430588Y-99395414D01*
X163430588Y-99395409D01*
X163430832Y-99394192D01*
X163434305Y-99383463D01*
X163436697Y-99378226D01*
X163455133Y-99250000D01*
X163451539Y-99225000D01*
X163436698Y-99121776D01*
X163404147Y-99050500D01*
X163382882Y-99003937D01*
X163298049Y-98906033D01*
X163189069Y-98835996D01*
X163189068Y-98835995D01*
X163189064Y-98835993D01*
X163185881Y-98834539D01*
X163186069Y-98834126D01*
X163181727Y-98832134D01*
X163181688Y-98832211D01*
X163179857Y-98831276D01*
X163179639Y-98831176D01*
X163179551Y-98831120D01*
X162831959Y-98653616D01*
X162819596Y-98644625D01*
X162184511Y-98009540D01*
X162153114Y-97991413D01*
X162115990Y-97969979D01*
X162039564Y-97949500D01*
X162039562Y-97949500D01*
X161300716Y-97949500D01*
X161266068Y-97935148D01*
X161251716Y-97900500D01*
X161266068Y-97865852D01*
X161274225Y-97859279D01*
X161298046Y-97843970D01*
X161298048Y-97843968D01*
X161304956Y-97835996D01*
X161382882Y-97746063D01*
X161436697Y-97628226D01*
X161436697Y-97628224D01*
X161436698Y-97628223D01*
X161455133Y-97500002D01*
X161455133Y-97499997D01*
X161436698Y-97371776D01*
X161395761Y-97282138D01*
X161382882Y-97253937D01*
X161298049Y-97156033D01*
X161189069Y-97085996D01*
X161189066Y-97085995D01*
X161064776Y-97049500D01*
X161064772Y-97049500D01*
X160935228Y-97049500D01*
X160935221Y-97049500D01*
X160853612Y-97073462D01*
X160845525Y-97075112D01*
X160830767Y-97076845D01*
X160482257Y-97189733D01*
X160444873Y-97186756D01*
X160423519Y-97165402D01*
X160422957Y-97164301D01*
X160265790Y-96856531D01*
X160254858Y-96842082D01*
X160249363Y-96832874D01*
X160241304Y-96815227D01*
X160229789Y-96790012D01*
X160144956Y-96692108D01*
X160035976Y-96622071D01*
X160035973Y-96622070D01*
X159911683Y-96585575D01*
X159911679Y-96585575D01*
X159782135Y-96585575D01*
X159782130Y-96585575D01*
X159657840Y-96622070D01*
X159657838Y-96622070D01*
X159657838Y-96622071D01*
X159629587Y-96640227D01*
X159548857Y-96692108D01*
X159464026Y-96790011D01*
X159464025Y-96790011D01*
X159410208Y-96907851D01*
X159391774Y-97036072D01*
X159391774Y-97036077D01*
X159410208Y-97164298D01*
X159464025Y-97282138D01*
X159541695Y-97371776D01*
X159548858Y-97380042D01*
X159657838Y-97450079D01*
X159657843Y-97450082D01*
X159661027Y-97451536D01*
X159660829Y-97451969D01*
X159665173Y-97453946D01*
X159665217Y-97453862D01*
X159667105Y-97454826D01*
X159667287Y-97454909D01*
X159667355Y-97454952D01*
X159667361Y-97454957D01*
X159759354Y-97501935D01*
X159764526Y-97504576D01*
X159764528Y-97504576D01*
X159970972Y-97610000D01*
X160014944Y-97632455D01*
X160027307Y-97641446D01*
X160070372Y-97684511D01*
X160126321Y-97740460D01*
X160194843Y-97780021D01*
X160230310Y-97789524D01*
X160271268Y-97800500D01*
X160271270Y-97800500D01*
X160444373Y-97800500D01*
X160459473Y-97802885D01*
X160616919Y-97853885D01*
X160645458Y-97878215D01*
X160648434Y-97915600D01*
X160624104Y-97944139D01*
X160601819Y-97949500D01*
X158388897Y-97949500D01*
X158354249Y-97935148D01*
X158339897Y-97900500D01*
X158343627Y-97881748D01*
X158375500Y-97804800D01*
X158375500Y-97695200D01*
X158375500Y-97644648D01*
X158389852Y-97610000D01*
X158398004Y-97603429D01*
X158431128Y-97582143D01*
X158525377Y-97473373D01*
X158585165Y-97342457D01*
X158585165Y-97342455D01*
X158585166Y-97342454D01*
X158605647Y-97200002D01*
X158605647Y-97199997D01*
X158585166Y-97057545D01*
X158557793Y-96997608D01*
X158556454Y-96960129D01*
X158582009Y-96932680D01*
X158616169Y-96930237D01*
X158655967Y-96941922D01*
X158685224Y-96950513D01*
X158685228Y-96950514D01*
X158814772Y-96950514D01*
X158814776Y-96950513D01*
X158835324Y-96944479D01*
X158939069Y-96914018D01*
X159048049Y-96843981D01*
X159132882Y-96746077D01*
X159186697Y-96628240D01*
X159186697Y-96628238D01*
X159186698Y-96628237D01*
X159205133Y-96500016D01*
X159205133Y-96500011D01*
X159186698Y-96371790D01*
X159150430Y-96292376D01*
X159132882Y-96253951D01*
X159048049Y-96156047D01*
X159012798Y-96133392D01*
X159011932Y-96132822D01*
X158822546Y-96005244D01*
X158801828Y-95973983D01*
X158800922Y-95964605D01*
X158800922Y-95660856D01*
X158803307Y-95645756D01*
X158923572Y-95274474D01*
X158923573Y-95274470D01*
X158923574Y-95274468D01*
X158924847Y-95265273D01*
X158928809Y-95251649D01*
X158937119Y-95233456D01*
X158955555Y-95105230D01*
X158951137Y-95074500D01*
X158937120Y-94977006D01*
X158905438Y-94907633D01*
X158883304Y-94859167D01*
X158798471Y-94761263D01*
X158689491Y-94691226D01*
X158689488Y-94691225D01*
X158565198Y-94654730D01*
X158565194Y-94654730D01*
X158435650Y-94654730D01*
X158435645Y-94654730D01*
X158311355Y-94691225D01*
X158311353Y-94691225D01*
X158311353Y-94691226D01*
X158277846Y-94712759D01*
X158202372Y-94761263D01*
X158117541Y-94859166D01*
X158117540Y-94859166D01*
X158063723Y-94977006D01*
X158045289Y-95105227D01*
X158045289Y-95105232D01*
X158063723Y-95233453D01*
X158072279Y-95252187D01*
X158076373Y-95266827D01*
X158077270Y-95274470D01*
X158197537Y-95645753D01*
X158199922Y-95660853D01*
X158199922Y-96289999D01*
X158220400Y-96366423D01*
X158220401Y-96366427D01*
X158228247Y-96380016D01*
X158228252Y-96380022D01*
X158259959Y-96434943D01*
X158259964Y-96434949D01*
X158262009Y-96436994D01*
X158274998Y-96460165D01*
X158309525Y-96603469D01*
X158310389Y-96607974D01*
X158313301Y-96628236D01*
X158313303Y-96628240D01*
X158317214Y-96636804D01*
X158319798Y-96643848D01*
X158320342Y-96645778D01*
X158320905Y-96647514D01*
X158322163Y-96651272D01*
X158324554Y-96655109D01*
X158330699Y-96692105D01*
X158308884Y-96722611D01*
X158271888Y-96728756D01*
X158269163Y-96728040D01*
X158171965Y-96699500D01*
X158171961Y-96699500D01*
X158028039Y-96699500D01*
X158028034Y-96699500D01*
X157889949Y-96740046D01*
X157768871Y-96817857D01*
X157674625Y-96926623D01*
X157674624Y-96926625D01*
X157614833Y-97057545D01*
X157594353Y-97199997D01*
X157594353Y-97200002D01*
X157614833Y-97342454D01*
X157646935Y-97412746D01*
X157674623Y-97473373D01*
X157674624Y-97473374D01*
X157674625Y-97473376D01*
X157762631Y-97574941D01*
X157768872Y-97582143D01*
X157777408Y-97587628D01*
X157784300Y-97592058D01*
X157805688Y-97622863D01*
X157799029Y-97659771D01*
X157792456Y-97667927D01*
X157525237Y-97935148D01*
X157490589Y-97949500D01*
X156960435Y-97949500D01*
X156884013Y-97969977D01*
X156884010Y-97969978D01*
X156815488Y-98009540D01*
X156815488Y-98009541D01*
X156389881Y-98435148D01*
X156355233Y-98449500D01*
X156099694Y-98449500D01*
X156065046Y-98435148D01*
X156050694Y-98400500D01*
X156055121Y-98380146D01*
X156078833Y-98328226D01*
X156078833Y-98328224D01*
X156078834Y-98328223D01*
X156097269Y-98199999D01*
X156097269Y-98197902D01*
X156097563Y-98192543D01*
X156097753Y-98190812D01*
X156097752Y-98190812D01*
X156097754Y-98190808D01*
X156100566Y-97944142D01*
X156114914Y-97910055D01*
X157740460Y-96284511D01*
X157754343Y-96260465D01*
X157780021Y-96215989D01*
X157800500Y-96139562D01*
X157800500Y-95255629D01*
X157802885Y-95240532D01*
X157899891Y-94941054D01*
X157923152Y-94869244D01*
X157924425Y-94860049D01*
X157928387Y-94846425D01*
X157936697Y-94828232D01*
X157955133Y-94700006D01*
X157955133Y-94700001D01*
X157936698Y-94571782D01*
X157918944Y-94532907D01*
X157882882Y-94453943D01*
X157798049Y-94356039D01*
X157689069Y-94286002D01*
X157689066Y-94286001D01*
X157564776Y-94249506D01*
X157564772Y-94249506D01*
X157435228Y-94249506D01*
X157435223Y-94249506D01*
X157310933Y-94286001D01*
X157201950Y-94356039D01*
X157117119Y-94453942D01*
X157117118Y-94453943D01*
X157081055Y-94532907D01*
X157053606Y-94558462D01*
X157016127Y-94557123D01*
X156990572Y-94529674D01*
X156988423Y-94522104D01*
X156988394Y-94521962D01*
X156944192Y-94455807D01*
X156878036Y-94411604D01*
X156819695Y-94400000D01*
X156125000Y-94400000D01*
X156125000Y-95150000D01*
X157000000Y-95150000D01*
X157000000Y-94942281D01*
X157014352Y-94907633D01*
X157049000Y-94893281D01*
X157083648Y-94907633D01*
X157095615Y-94927181D01*
X157115030Y-94987120D01*
X157197115Y-95240529D01*
X157199500Y-95255629D01*
X157199500Y-95955232D01*
X157185148Y-95989880D01*
X155619495Y-97555532D01*
X155614043Y-97560236D01*
X155594222Y-97574940D01*
X155538461Y-97636482D01*
X155536798Y-97638229D01*
X155457625Y-97717404D01*
X155401679Y-97773349D01*
X155401674Y-97773356D01*
X155381855Y-97807683D01*
X155375732Y-97816082D01*
X155320522Y-97877017D01*
X155320519Y-97877021D01*
X155309252Y-97895269D01*
X155304594Y-97901609D01*
X155259257Y-97953932D01*
X155259254Y-97953936D01*
X155205437Y-98071776D01*
X155187003Y-98199997D01*
X155187003Y-98200002D01*
X155205437Y-98328223D01*
X155217994Y-98355719D01*
X155229150Y-98380145D01*
X155230489Y-98417623D01*
X155204934Y-98445072D01*
X155184578Y-98449500D01*
X154769767Y-98449500D01*
X154735119Y-98435148D01*
X154355371Y-98055400D01*
X154346380Y-98043037D01*
X154326048Y-98003223D01*
X154168883Y-97695456D01*
X154157951Y-97681007D01*
X154152456Y-97671799D01*
X154146963Y-97659771D01*
X154132882Y-97628937D01*
X154048049Y-97531033D01*
X153939069Y-97460996D01*
X153939066Y-97460995D01*
X153814776Y-97424500D01*
X153814772Y-97424500D01*
X153685228Y-97424500D01*
X153685223Y-97424500D01*
X153560933Y-97460995D01*
X153560931Y-97460995D01*
X153560931Y-97460996D01*
X153541667Y-97473376D01*
X153451950Y-97531033D01*
X153367119Y-97628936D01*
X153367118Y-97628936D01*
X153313301Y-97746776D01*
X153294867Y-97874997D01*
X148725500Y-97874997D01*
X148725500Y-95919694D01*
X155050000Y-95919694D01*
X155061604Y-95978036D01*
X155105807Y-96044192D01*
X155171963Y-96088395D01*
X155230305Y-96100000D01*
X155925000Y-96100000D01*
X156125000Y-96100000D01*
X156819695Y-96100000D01*
X156878036Y-96088395D01*
X156944192Y-96044192D01*
X156988395Y-95978036D01*
X157000000Y-95919694D01*
X157000000Y-95350000D01*
X156125000Y-95350000D01*
X156125000Y-96100000D01*
X155925000Y-96100000D01*
X155925000Y-95350000D01*
X155050000Y-95350000D01*
X155050000Y-95919694D01*
X148725500Y-95919694D01*
X148725500Y-94580305D01*
X155050000Y-94580305D01*
X155050000Y-95150000D01*
X155925000Y-95150000D01*
X155925000Y-94400000D01*
X155230305Y-94400000D01*
X155171963Y-94411604D01*
X155105807Y-94455807D01*
X155061604Y-94521963D01*
X155050000Y-94580305D01*
X148725500Y-94580305D01*
X148725500Y-94255123D01*
X148739852Y-94220475D01*
X149620475Y-93339852D01*
X149655123Y-93325500D01*
X151338984Y-93325500D01*
X151373632Y-93339852D01*
X151387984Y-93374500D01*
X151381420Y-93398997D01*
X151380199Y-93401113D01*
X151380198Y-93401115D01*
X151375641Y-93418120D01*
X151372884Y-93425789D01*
X151363301Y-93446773D01*
X151363301Y-93446774D01*
X151358315Y-93481443D01*
X151357145Y-93487146D01*
X151349499Y-93515688D01*
X151349499Y-93539266D01*
X151349000Y-93546239D01*
X151344865Y-93575000D01*
X151348459Y-93600000D01*
X151349000Y-93603758D01*
X151349499Y-93610732D01*
X151349499Y-93634309D01*
X151357145Y-93662851D01*
X151358315Y-93668556D01*
X151363301Y-93703224D01*
X151363302Y-93703229D01*
X151372884Y-93724211D01*
X151375642Y-93731883D01*
X151380198Y-93748885D01*
X151380200Y-93748889D01*
X151397952Y-93779637D01*
X151400089Y-93783781D01*
X151417116Y-93821063D01*
X151417116Y-93821064D01*
X151428299Y-93833969D01*
X151433703Y-93841558D01*
X151439505Y-93851608D01*
X151439507Y-93851610D01*
X151439509Y-93851614D01*
X151439512Y-93851617D01*
X151468820Y-93880925D01*
X151471204Y-93883485D01*
X151501949Y-93918967D01*
X151511268Y-93924956D01*
X151519423Y-93931528D01*
X151548384Y-93960489D01*
X151597774Y-93989004D01*
X151640210Y-94013505D01*
X151651112Y-94019799D01*
X151679756Y-94027474D01*
X151765686Y-94050500D01*
X151765689Y-94050500D01*
X159393101Y-94050500D01*
X159427749Y-94064852D01*
X163973386Y-98610489D01*
X164014420Y-98634180D01*
X164076109Y-98669797D01*
X164076110Y-98669797D01*
X164076113Y-98669799D01*
X164093143Y-98674362D01*
X164125659Y-98683074D01*
X164190689Y-98700500D01*
X164190691Y-98700500D01*
X167564769Y-98700500D01*
X167564772Y-98700500D01*
X167621286Y-98683905D01*
X167622284Y-98683624D01*
X167673886Y-98669799D01*
X167673889Y-98669796D01*
X167673893Y-98669796D01*
X167676854Y-98668570D01*
X167676858Y-98668580D01*
X167684221Y-98665427D01*
X167689069Y-98664004D01*
X167733589Y-98635391D01*
X167735559Y-98634190D01*
X167776613Y-98610489D01*
X167780571Y-98606529D01*
X167788727Y-98599956D01*
X167798049Y-98593967D01*
X167828799Y-98558477D01*
X167831156Y-98555944D01*
X167860489Y-98526613D01*
X167860820Y-98526038D01*
X167866293Y-98516560D01*
X167871701Y-98508965D01*
X167882880Y-98496065D01*
X167882883Y-98496061D01*
X167899905Y-98458786D01*
X167902043Y-98454639D01*
X167919797Y-98423890D01*
X167919797Y-98423888D01*
X167919799Y-98423886D01*
X167924357Y-98406871D01*
X167927110Y-98399215D01*
X167936697Y-98378226D01*
X167941682Y-98343544D01*
X167942848Y-98337861D01*
X167950500Y-98309309D01*
X167950500Y-98285725D01*
X167950999Y-98278751D01*
X167955133Y-98250001D01*
X167955133Y-98249998D01*
X167950999Y-98221246D01*
X167950500Y-98214273D01*
X167950500Y-98190691D01*
X167942851Y-98162148D01*
X167941682Y-98156453D01*
X167936697Y-98121774D01*
X167927111Y-98100784D01*
X167924355Y-98093120D01*
X167919799Y-98076114D01*
X167902035Y-98045347D01*
X167899907Y-98041218D01*
X167882882Y-98003937D01*
X167882879Y-98003933D01*
X167871697Y-97991029D01*
X167866292Y-97983438D01*
X167860493Y-97973393D01*
X167860490Y-97973390D01*
X167860489Y-97973387D01*
X167831182Y-97944080D01*
X167828798Y-97941520D01*
X167798048Y-97906032D01*
X167798046Y-97906031D01*
X167788727Y-97900042D01*
X167780570Y-97893468D01*
X167776616Y-97889514D01*
X167776613Y-97889511D01*
X167776609Y-97889509D01*
X167776607Y-97889507D01*
X167735581Y-97865821D01*
X167733590Y-97864608D01*
X167725298Y-97859279D01*
X167689069Y-97835996D01*
X167689066Y-97835995D01*
X167689064Y-97835994D01*
X167684209Y-97834568D01*
X167676855Y-97831419D01*
X167676851Y-97831429D01*
X167673886Y-97830201D01*
X167622360Y-97816394D01*
X167621238Y-97816079D01*
X167564776Y-97799500D01*
X167564772Y-97799500D01*
X167559309Y-97799500D01*
X164456899Y-97799500D01*
X164422251Y-97785148D01*
X162556797Y-95919694D01*
X163000000Y-95919694D01*
X163011604Y-95978036D01*
X163055807Y-96044192D01*
X163121963Y-96088395D01*
X163180305Y-96100000D01*
X163875000Y-96100000D01*
X164075000Y-96100000D01*
X164769695Y-96100000D01*
X164828036Y-96088395D01*
X164894192Y-96044192D01*
X164938395Y-95978036D01*
X164950000Y-95919694D01*
X164950000Y-95350000D01*
X164075000Y-95350000D01*
X164075000Y-96100000D01*
X163875000Y-96100000D01*
X163875000Y-95350000D01*
X163000000Y-95350000D01*
X163000000Y-95919694D01*
X162556797Y-95919694D01*
X160046251Y-93409148D01*
X160031899Y-93374500D01*
X160046251Y-93339852D01*
X160080899Y-93325500D01*
X162253859Y-93325500D01*
X162288507Y-93339852D01*
X162302859Y-93374500D01*
X162298431Y-93394856D01*
X162263301Y-93471776D01*
X162244867Y-93599997D01*
X162244867Y-93600002D01*
X162263301Y-93728223D01*
X162317118Y-93846063D01*
X162369081Y-93906033D01*
X162401951Y-93943967D01*
X162495265Y-94003936D01*
X162504166Y-94009656D01*
X162507410Y-94012113D01*
X162507429Y-94012088D01*
X162509379Y-94013501D01*
X162509382Y-94013504D01*
X162509384Y-94013505D01*
X162850154Y-94212745D01*
X162860070Y-94220397D01*
X163043263Y-94403590D01*
X163057615Y-94438238D01*
X163049357Y-94465460D01*
X163011604Y-94521962D01*
X163000000Y-94580305D01*
X163000000Y-95150000D01*
X164950000Y-95150000D01*
X164950000Y-94580303D01*
X164949901Y-94579297D01*
X164950000Y-94578970D01*
X164950000Y-94577895D01*
X164950326Y-94577895D01*
X164960792Y-94543411D01*
X164993869Y-94525735D01*
X164998666Y-94525500D01*
X167263197Y-94525500D01*
X167297845Y-94539852D01*
X171542391Y-98784398D01*
X171548277Y-98791515D01*
X171560356Y-98809300D01*
X171560358Y-98809302D01*
X171560359Y-98809303D01*
X171870774Y-99115064D01*
X171879542Y-99120864D01*
X171889538Y-99129642D01*
X171901950Y-99143966D01*
X171901951Y-99143967D01*
X172010931Y-99214004D01*
X172080093Y-99234311D01*
X172135223Y-99250499D01*
X172135228Y-99250500D01*
X172264772Y-99250500D01*
X172264776Y-99250499D01*
X172285324Y-99244465D01*
X172389069Y-99214004D01*
X172498049Y-99143967D01*
X172582882Y-99046063D01*
X172636697Y-98928226D01*
X172636697Y-98928224D01*
X172636698Y-98928223D01*
X172655133Y-98800002D01*
X172655133Y-98799997D01*
X172636698Y-98671776D01*
X172605199Y-98602804D01*
X172582882Y-98553937D01*
X172498049Y-98456033D01*
X172389069Y-98385996D01*
X172389066Y-98385995D01*
X172343150Y-98372512D01*
X172337485Y-98370462D01*
X172325346Y-98365205D01*
X172325337Y-98365202D01*
X172300387Y-98359820D01*
X172296921Y-98358939D01*
X172264772Y-98349500D01*
X172264771Y-98349500D01*
X172257760Y-98349500D01*
X172247428Y-98348398D01*
X171980544Y-98290831D01*
X171956228Y-98277581D01*
X167618182Y-93939535D01*
X167543960Y-93896682D01*
X167543957Y-93896681D01*
X167461176Y-93874500D01*
X167461173Y-93874500D01*
X163455123Y-93874500D01*
X163420475Y-93860148D01*
X163320397Y-93760070D01*
X163312745Y-93750154D01*
X163312005Y-93748889D01*
X163285309Y-93703229D01*
X163113508Y-93409387D01*
X163113505Y-93409383D01*
X163110253Y-93405446D01*
X163099253Y-93369593D01*
X163116827Y-93336462D01*
X163139787Y-93326467D01*
X163139751Y-93326332D01*
X163140651Y-93326090D01*
X163141641Y-93325660D01*
X163142854Y-93325500D01*
X163170448Y-93318106D01*
X163225639Y-93303318D01*
X163299862Y-93260465D01*
X163439929Y-93120396D01*
X163449841Y-93112748D01*
X163780680Y-92919314D01*
X163790617Y-92913504D01*
X163791048Y-92913147D01*
X163795766Y-92909698D01*
X163898049Y-92843967D01*
X163982882Y-92746063D01*
X164036697Y-92628226D01*
X164036697Y-92628224D01*
X164036698Y-92628223D01*
X164055133Y-92500002D01*
X164055133Y-92499997D01*
X164036698Y-92371776D01*
X163999527Y-92290385D01*
X163982882Y-92253937D01*
X163898049Y-92156033D01*
X163789069Y-92085996D01*
X163789066Y-92085995D01*
X163664776Y-92049500D01*
X163664772Y-92049500D01*
X163535228Y-92049500D01*
X163535223Y-92049500D01*
X163410933Y-92085995D01*
X163301950Y-92156033D01*
X163217118Y-92253935D01*
X163217116Y-92253939D01*
X163200471Y-92290385D01*
X163192564Y-92302535D01*
X163186497Y-92309377D01*
X163186493Y-92309382D01*
X162987250Y-92650157D01*
X162979830Y-92659840D01*
X162979756Y-92659915D01*
X162945205Y-92674499D01*
X162944876Y-92674500D01*
X161304123Y-92674500D01*
X161269475Y-92660148D01*
X161255123Y-92625500D01*
X161269475Y-92590852D01*
X161424485Y-92435842D01*
X162239928Y-91620396D01*
X162249836Y-91612750D01*
X162590617Y-91413504D01*
X162591048Y-91413147D01*
X162595766Y-91409698D01*
X162698049Y-91343967D01*
X162782882Y-91246063D01*
X162815118Y-91175475D01*
X162842565Y-91149922D01*
X162880044Y-91151260D01*
X162897656Y-91164856D01*
X162940609Y-91217502D01*
X162940618Y-91217512D01*
X162988466Y-91276157D01*
X162999500Y-91307134D01*
X162999500Y-91419748D01*
X163011133Y-91478231D01*
X163028882Y-91504795D01*
X163055447Y-91544552D01*
X163069318Y-91553820D01*
X163121769Y-91588867D01*
X163180252Y-91600500D01*
X163180255Y-91600500D01*
X164769745Y-91600500D01*
X164769748Y-91600500D01*
X164828231Y-91588867D01*
X164866683Y-91563172D01*
X164869284Y-91561552D01*
X164893303Y-91547631D01*
X165227945Y-91253151D01*
X165263436Y-91241037D01*
X165294962Y-91255289D01*
X169700138Y-95660465D01*
X169774361Y-95703318D01*
X169839653Y-95720812D01*
X169857143Y-95725499D01*
X169857144Y-95725500D01*
X169857147Y-95725500D01*
X172542856Y-95725500D01*
X172542856Y-95725499D01*
X172625639Y-95703318D01*
X172699862Y-95660465D01*
X173560465Y-94799862D01*
X173603318Y-94725639D01*
X173625499Y-94642856D01*
X173625500Y-94642856D01*
X173625500Y-88651539D01*
X173631360Y-88628303D01*
X173631400Y-88628229D01*
X173805776Y-88304479D01*
X173810316Y-88295535D01*
X173810808Y-88294504D01*
X173814070Y-88280211D01*
X173817266Y-88270771D01*
X173836697Y-88228226D01*
X173855133Y-88100000D01*
X173854820Y-88097821D01*
X173836698Y-87971776D01*
X173829297Y-87955572D01*
X173782882Y-87853937D01*
X173698049Y-87756033D01*
X173589069Y-87685996D01*
X173589066Y-87685995D01*
X173464776Y-87649500D01*
X173464772Y-87649500D01*
X173335228Y-87649500D01*
X173335223Y-87649500D01*
X173210933Y-87685995D01*
X173101950Y-87756033D01*
X173017119Y-87853936D01*
X173017118Y-87853936D01*
X172963301Y-87971776D01*
X172944867Y-88099997D01*
X172944867Y-88099999D01*
X172945796Y-88106464D01*
X172945787Y-88120462D01*
X172945420Y-88122989D01*
X172945420Y-88122991D01*
X172969199Y-88577711D01*
X172969200Y-88577720D01*
X172971631Y-88587851D01*
X172973147Y-88594165D01*
X172974500Y-88605600D01*
X172974500Y-93979619D01*
X172960148Y-94014267D01*
X172925500Y-94028619D01*
X172890852Y-94014267D01*
X172884278Y-94006110D01*
X172882881Y-94003936D01*
X172814050Y-93924500D01*
X172798049Y-93906033D01*
X172689069Y-93835996D01*
X172682166Y-93833969D01*
X172564776Y-93799500D01*
X172564772Y-93799500D01*
X172435228Y-93799500D01*
X172435221Y-93799500D01*
X172364573Y-93820244D01*
X172353708Y-93822141D01*
X172342399Y-93822820D01*
X171960546Y-93922899D01*
X171948123Y-93924500D01*
X171123644Y-93924500D01*
X171088996Y-93910148D01*
X169672919Y-92494071D01*
X169658567Y-92459423D01*
X169672919Y-92424775D01*
X169687219Y-92414848D01*
X169689060Y-92414006D01*
X169689069Y-92414004D01*
X169798049Y-92343967D01*
X169882882Y-92246063D01*
X169936697Y-92128226D01*
X169936697Y-92128224D01*
X169936698Y-92128223D01*
X169955133Y-92000002D01*
X169955133Y-91999997D01*
X169936697Y-91871774D01*
X169934307Y-91866539D01*
X169930833Y-91855807D01*
X169877376Y-91588866D01*
X169853382Y-91469051D01*
X169853377Y-91469037D01*
X169852902Y-91467327D01*
X169853030Y-91467291D01*
X169853029Y-91467286D01*
X169853071Y-91467277D01*
X169850500Y-91452495D01*
X169850500Y-88953853D01*
X169826614Y-88864713D01*
X169826613Y-88864710D01*
X169807309Y-88831275D01*
X169807308Y-88831274D01*
X169797493Y-88814274D01*
X169787336Y-88796681D01*
X169780472Y-88784791D01*
X169780467Y-88784785D01*
X164390430Y-83394748D01*
X164380359Y-83380129D01*
X164311150Y-83225607D01*
X164311150Y-83225604D01*
X163986159Y-82500000D01*
X164314417Y-82500000D01*
X164334700Y-82705934D01*
X164394768Y-82903954D01*
X164492315Y-83086450D01*
X164623590Y-83246410D01*
X164783550Y-83377685D01*
X164966046Y-83475232D01*
X165164066Y-83535300D01*
X165370000Y-83555583D01*
X165575934Y-83535300D01*
X165773954Y-83475232D01*
X165956450Y-83377685D01*
X166116410Y-83246410D01*
X166247685Y-83086450D01*
X166345232Y-82903954D01*
X166405300Y-82705934D01*
X166425583Y-82500000D01*
X166854417Y-82500000D01*
X166874700Y-82705934D01*
X166934768Y-82903954D01*
X167032315Y-83086450D01*
X167163590Y-83246410D01*
X167323550Y-83377685D01*
X167506046Y-83475232D01*
X167704066Y-83535300D01*
X167910000Y-83555583D01*
X168115934Y-83535300D01*
X168313954Y-83475232D01*
X168496450Y-83377685D01*
X168656410Y-83246410D01*
X168787685Y-83086450D01*
X168885232Y-82903954D01*
X168945300Y-82705934D01*
X168965583Y-82500000D01*
X168955734Y-82400000D01*
X169404768Y-82400000D01*
X169959157Y-82400000D01*
X169950000Y-82434174D01*
X169950000Y-82565826D01*
X169959157Y-82600000D01*
X169404768Y-82600000D01*
X169415192Y-82705836D01*
X169415192Y-82705837D01*
X169475231Y-82903758D01*
X169475236Y-82903770D01*
X169572731Y-83086171D01*
X169572736Y-83086178D01*
X169703945Y-83246054D01*
X169863821Y-83377263D01*
X169863828Y-83377268D01*
X170046229Y-83474763D01*
X170046241Y-83474768D01*
X170244162Y-83534807D01*
X170349999Y-83545231D01*
X170350000Y-83545231D01*
X170350000Y-82990842D01*
X170384174Y-83000000D01*
X170515826Y-83000000D01*
X170550000Y-82990842D01*
X170550000Y-83545231D01*
X170655836Y-83534807D01*
X170655837Y-83534807D01*
X170770590Y-83499997D01*
X173594584Y-83499997D01*
X173594584Y-83500002D01*
X173614228Y-83837294D01*
X173672899Y-84170030D01*
X173672900Y-84170035D01*
X173699713Y-84259597D01*
X173769800Y-84493706D01*
X173769801Y-84493709D01*
X173769802Y-84493711D01*
X173903015Y-84802535D01*
X173903624Y-84803945D01*
X173903628Y-84803954D01*
X174016817Y-85000002D01*
X174072560Y-85096552D01*
X174112468Y-85150157D01*
X174274324Y-85367568D01*
X174506182Y-85613322D01*
X174506183Y-85613323D01*
X174765006Y-85830502D01*
X175047292Y-86016164D01*
X175349224Y-86167800D01*
X175666717Y-86283358D01*
X175995480Y-86361276D01*
X176331065Y-86400500D01*
X176331069Y-86400500D01*
X176668930Y-86400500D01*
X176668935Y-86400500D01*
X177004520Y-86361276D01*
X177333283Y-86283358D01*
X177650776Y-86167800D01*
X177952708Y-86016164D01*
X178234994Y-85830502D01*
X178493817Y-85613323D01*
X178725678Y-85367565D01*
X178927440Y-85096552D01*
X179096375Y-84803948D01*
X179230198Y-84493711D01*
X179327100Y-84170035D01*
X179385771Y-83837298D01*
X179405416Y-83500000D01*
X179404470Y-83483764D01*
X179389435Y-83225610D01*
X179385771Y-83162702D01*
X179327100Y-82829965D01*
X179230198Y-82506289D01*
X179096375Y-82196052D01*
X178927440Y-81903448D01*
X178725678Y-81632435D01*
X178725677Y-81632434D01*
X178725675Y-81632431D01*
X178493817Y-81386677D01*
X178234996Y-81169500D01*
X178234994Y-81169498D01*
X177952708Y-80983836D01*
X177947505Y-80981223D01*
X177650779Y-80832201D01*
X177333292Y-80716645D01*
X177333287Y-80716643D01*
X177333283Y-80716642D01*
X177215052Y-80688620D01*
X177004526Y-80638725D01*
X177004523Y-80638724D01*
X176860697Y-80621913D01*
X176668935Y-80599500D01*
X176331065Y-80599500D01*
X176163272Y-80619112D01*
X175995476Y-80638724D01*
X175995473Y-80638725D01*
X175666717Y-80716642D01*
X175666707Y-80716645D01*
X175349220Y-80832201D01*
X175047295Y-80983834D01*
X175047290Y-80983837D01*
X174765003Y-81169500D01*
X174506182Y-81386677D01*
X174274324Y-81632431D01*
X174072557Y-81903452D01*
X173903628Y-82196045D01*
X173903624Y-82196054D01*
X173769800Y-82506293D01*
X173672899Y-82829969D01*
X173614228Y-83162705D01*
X173594584Y-83499997D01*
X170770590Y-83499997D01*
X170853758Y-83474768D01*
X170853770Y-83474763D01*
X171036171Y-83377268D01*
X171036178Y-83377263D01*
X171196054Y-83246054D01*
X171327263Y-83086178D01*
X171327268Y-83086171D01*
X171424763Y-82903770D01*
X171424768Y-82903758D01*
X171484807Y-82705837D01*
X171484807Y-82705836D01*
X171495232Y-82600000D01*
X170940843Y-82600000D01*
X170950000Y-82565826D01*
X170950000Y-82434174D01*
X170940843Y-82400000D01*
X171495231Y-82400000D01*
X171484807Y-82294163D01*
X171484807Y-82294162D01*
X171424768Y-82096241D01*
X171424763Y-82096229D01*
X171327268Y-81913828D01*
X171327263Y-81913821D01*
X171196054Y-81753945D01*
X171036178Y-81622736D01*
X171036171Y-81622731D01*
X170853770Y-81525236D01*
X170853758Y-81525231D01*
X170655836Y-81465192D01*
X170550000Y-81454768D01*
X170550000Y-82009157D01*
X170515826Y-82000000D01*
X170384174Y-82000000D01*
X170350000Y-82009157D01*
X170350000Y-81454768D01*
X170244163Y-81465192D01*
X170244162Y-81465192D01*
X170046241Y-81525231D01*
X170046229Y-81525236D01*
X169863828Y-81622731D01*
X169863821Y-81622736D01*
X169703945Y-81753945D01*
X169572736Y-81913821D01*
X169572731Y-81913828D01*
X169475236Y-82096229D01*
X169475231Y-82096241D01*
X169415192Y-82294162D01*
X169415192Y-82294163D01*
X169404768Y-82400000D01*
X168955734Y-82400000D01*
X168945300Y-82294066D01*
X168885232Y-82096046D01*
X168787685Y-81913550D01*
X168656410Y-81753590D01*
X168496450Y-81622315D01*
X168313954Y-81524768D01*
X168115934Y-81464700D01*
X167910000Y-81444417D01*
X167704065Y-81464700D01*
X167704064Y-81464700D01*
X167506043Y-81524769D01*
X167323548Y-81622316D01*
X167163590Y-81753590D01*
X167032316Y-81913548D01*
X166934769Y-82096043D01*
X166934768Y-82096045D01*
X166934768Y-82096046D01*
X166927011Y-82121616D01*
X166874700Y-82294064D01*
X166874700Y-82294065D01*
X166874691Y-82294162D01*
X166854417Y-82500000D01*
X166425583Y-82500000D01*
X166405300Y-82294066D01*
X166345232Y-82096046D01*
X166247685Y-81913550D01*
X166116410Y-81753590D01*
X165956450Y-81622315D01*
X165773954Y-81524768D01*
X165575934Y-81464700D01*
X165370000Y-81444417D01*
X165164065Y-81464700D01*
X165164064Y-81464700D01*
X164966043Y-81524769D01*
X164783548Y-81622316D01*
X164623590Y-81753590D01*
X164492316Y-81913548D01*
X164394769Y-82096043D01*
X164394768Y-82096045D01*
X164394768Y-82096046D01*
X164387011Y-82121616D01*
X164334700Y-82294064D01*
X164334700Y-82294065D01*
X164334691Y-82294162D01*
X164314417Y-82500000D01*
X163986159Y-82500000D01*
X163950231Y-82419784D01*
X163806542Y-82098970D01*
X163806569Y-82098957D01*
X163805706Y-82097190D01*
X163805233Y-82096049D01*
X163805232Y-82096048D01*
X163805232Y-82096046D01*
X163707685Y-81913550D01*
X163576410Y-81753590D01*
X163416450Y-81622315D01*
X163233954Y-81524768D01*
X163035934Y-81464700D01*
X162830000Y-81444417D01*
X162624065Y-81464700D01*
X162624064Y-81464700D01*
X162426043Y-81524769D01*
X162243548Y-81622316D01*
X162083590Y-81753590D01*
X161952316Y-81913548D01*
X161854769Y-82096043D01*
X161854768Y-82096045D01*
X161854768Y-82096046D01*
X161847011Y-82121616D01*
X161794700Y-82294064D01*
X161794700Y-82294065D01*
X161794691Y-82294162D01*
X161774417Y-82500000D01*
X161794700Y-82705934D01*
X161854768Y-82903954D01*
X161952315Y-83086450D01*
X162083590Y-83246410D01*
X162243550Y-83377685D01*
X162381432Y-83451385D01*
X162426048Y-83475233D01*
X162434534Y-83477806D01*
X162454186Y-83483767D01*
X162459216Y-83485796D01*
X162459235Y-83485748D01*
X162461469Y-83486624D01*
X162461475Y-83486625D01*
X162461478Y-83486627D01*
X162492373Y-83495357D01*
X162493062Y-83495560D01*
X162624066Y-83535300D01*
X162634508Y-83536328D01*
X162643034Y-83537939D01*
X163884238Y-83888736D01*
X163905558Y-83901240D01*
X169135148Y-89130830D01*
X169149500Y-89165478D01*
X169149500Y-91452339D01*
X169146673Y-91466556D01*
X169147318Y-91466753D01*
X169146617Y-91469050D01*
X169081381Y-91794813D01*
X169060505Y-91825968D01*
X169023713Y-91833237D01*
X168998687Y-91819839D01*
X164668403Y-87489555D01*
X164594181Y-87446702D01*
X164594178Y-87446701D01*
X164511397Y-87424520D01*
X164511394Y-87424520D01*
X164051877Y-87424520D01*
X164039454Y-87422919D01*
X163657598Y-87322839D01*
X163642420Y-87321394D01*
X163633262Y-87319630D01*
X163564776Y-87299520D01*
X163564772Y-87299520D01*
X163435228Y-87299520D01*
X163435223Y-87299520D01*
X163310933Y-87336015D01*
X163201950Y-87406053D01*
X163129597Y-87489555D01*
X163117135Y-87503938D01*
X163117119Y-87503956D01*
X163117118Y-87503956D01*
X163063302Y-87621795D01*
X163060909Y-87638437D01*
X163041771Y-87670689D01*
X163005433Y-87679963D01*
X162973181Y-87660825D01*
X162970107Y-87656194D01*
X162966193Y-87649500D01*
X162913504Y-87559382D01*
X162905756Y-87550002D01*
X162898964Y-87539153D01*
X162882890Y-87503956D01*
X162882882Y-87503937D01*
X162798049Y-87406033D01*
X162689069Y-87335996D01*
X162689066Y-87335995D01*
X162564776Y-87299500D01*
X162564772Y-87299500D01*
X162435228Y-87299500D01*
X162435223Y-87299500D01*
X162310933Y-87335995D01*
X162310931Y-87335995D01*
X162310931Y-87335996D01*
X162310900Y-87336016D01*
X162201950Y-87406033D01*
X162117119Y-87503936D01*
X162117118Y-87503936D01*
X162063301Y-87621776D01*
X162044867Y-87749997D01*
X162044867Y-87750002D01*
X162063301Y-87878223D01*
X162117118Y-87996063D01*
X162204020Y-88096356D01*
X162215863Y-88131940D01*
X162199076Y-88165476D01*
X162163492Y-88177319D01*
X162153183Y-88175459D01*
X162064776Y-88149500D01*
X162064772Y-88149500D01*
X161935228Y-88149500D01*
X161935223Y-88149500D01*
X161810933Y-88185995D01*
X161810931Y-88185995D01*
X161810931Y-88185996D01*
X161790813Y-88198925D01*
X161701950Y-88256033D01*
X161617118Y-88353935D01*
X161617116Y-88353939D01*
X161600471Y-88390385D01*
X161592564Y-88402535D01*
X161586497Y-88409377D01*
X161586493Y-88409382D01*
X161387250Y-88750157D01*
X161379830Y-88759840D01*
X161379756Y-88759915D01*
X161345205Y-88774499D01*
X161344876Y-88774500D01*
X157554123Y-88774500D01*
X157519475Y-88760148D01*
X157505123Y-88725500D01*
X157519475Y-88690852D01*
X158029294Y-88181033D01*
X160589928Y-85620396D01*
X160599836Y-85612750D01*
X160940617Y-85413504D01*
X160941048Y-85413147D01*
X160945766Y-85409698D01*
X161048049Y-85343967D01*
X161132882Y-85246063D01*
X161186697Y-85128226D01*
X161186697Y-85128224D01*
X161186698Y-85128223D01*
X161205133Y-85000002D01*
X161205133Y-84999997D01*
X161186698Y-84871776D01*
X161155724Y-84803954D01*
X161132882Y-84753937D01*
X161048530Y-84656588D01*
X161036687Y-84621004D01*
X161053474Y-84587468D01*
X161085562Y-84575500D01*
X161698125Y-84575500D01*
X161710548Y-84577101D01*
X161774902Y-84593967D01*
X162092396Y-84677178D01*
X162107583Y-84678624D01*
X162116722Y-84680385D01*
X162173295Y-84696996D01*
X162185224Y-84700499D01*
X162185228Y-84700500D01*
X162314772Y-84700500D01*
X162314776Y-84700499D01*
X162335324Y-84694465D01*
X162439069Y-84664004D01*
X162548049Y-84593967D01*
X162632882Y-84496063D01*
X162686697Y-84378226D01*
X162686697Y-84378224D01*
X162686698Y-84378223D01*
X162705133Y-84250002D01*
X162705133Y-84249997D01*
X162686698Y-84121776D01*
X162653833Y-84049813D01*
X162632882Y-84003937D01*
X162548049Y-83906033D01*
X162439069Y-83835996D01*
X162439066Y-83835995D01*
X162314776Y-83799500D01*
X162314772Y-83799500D01*
X162185228Y-83799500D01*
X162185221Y-83799500D01*
X162114573Y-83820244D01*
X162103708Y-83822141D01*
X162092399Y-83822820D01*
X161710546Y-83922899D01*
X161698123Y-83924500D01*
X159457143Y-83924500D01*
X159374361Y-83946681D01*
X159374358Y-83946682D01*
X159300136Y-83989535D01*
X159300135Y-83989536D01*
X155260313Y-88029357D01*
X155230915Y-88043427D01*
X154988397Y-88069560D01*
X154988394Y-88069560D01*
X154977520Y-88072643D01*
X154964158Y-88074500D01*
X154935221Y-88074500D01*
X154810931Y-88110995D01*
X154810929Y-88110995D01*
X154810929Y-88110996D01*
X154792261Y-88122993D01*
X154701948Y-88181033D01*
X154617117Y-88278936D01*
X154617116Y-88278936D01*
X154563299Y-88396776D01*
X154544865Y-88524997D01*
X154544865Y-88525002D01*
X154563299Y-88653223D01*
X154575856Y-88680719D01*
X154587012Y-88705145D01*
X154588351Y-88742623D01*
X154562796Y-88770072D01*
X154542440Y-88774500D01*
X153480899Y-88774500D01*
X153446251Y-88760148D01*
X153431899Y-88725500D01*
X153446251Y-88690852D01*
X155570488Y-86566615D01*
X155570489Y-86566614D01*
X155629799Y-86463887D01*
X155657293Y-86361276D01*
X155660500Y-86349309D01*
X155660500Y-84287855D01*
X155669467Y-84259600D01*
X156222207Y-83476554D01*
X156237139Y-83446497D01*
X156240259Y-83441112D01*
X156248867Y-83428231D01*
X156250383Y-83420603D01*
X156251743Y-83415326D01*
X156252317Y-83413521D01*
X156258804Y-83378287D01*
X156258932Y-83377625D01*
X156259004Y-83377263D01*
X156260500Y-83369748D01*
X156260500Y-83369743D01*
X156260589Y-83369296D01*
X156261008Y-83366327D01*
X156261631Y-83362947D01*
X156261187Y-83360323D01*
X156260500Y-83352145D01*
X156260500Y-82500000D01*
X156694417Y-82500000D01*
X156714700Y-82705934D01*
X156774768Y-82903954D01*
X156872315Y-83086450D01*
X157003590Y-83246410D01*
X157163550Y-83377685D01*
X157346046Y-83475232D01*
X157544066Y-83535300D01*
X157750000Y-83555583D01*
X157955934Y-83535300D01*
X158153954Y-83475232D01*
X158336450Y-83377685D01*
X158496410Y-83246410D01*
X158627685Y-83086450D01*
X158725232Y-82903954D01*
X158785300Y-82705934D01*
X158805583Y-82500000D01*
X159234416Y-82500000D01*
X159254699Y-82705934D01*
X159314767Y-82903954D01*
X159412314Y-83086450D01*
X159543589Y-83246410D01*
X159703549Y-83377685D01*
X159886045Y-83475232D01*
X160084065Y-83535300D01*
X160289999Y-83555583D01*
X160495933Y-83535300D01*
X160693953Y-83475232D01*
X160876449Y-83377685D01*
X161036409Y-83246410D01*
X161167684Y-83086450D01*
X161265231Y-82903954D01*
X161325299Y-82705934D01*
X161345582Y-82500000D01*
X161325299Y-82294066D01*
X161265231Y-82096046D01*
X161167684Y-81913550D01*
X161036409Y-81753590D01*
X160876449Y-81622315D01*
X160693953Y-81524768D01*
X160495933Y-81464700D01*
X160289999Y-81444417D01*
X160084064Y-81464700D01*
X160084063Y-81464700D01*
X159886042Y-81524769D01*
X159703547Y-81622316D01*
X159543589Y-81753590D01*
X159412315Y-81913548D01*
X159314768Y-82096043D01*
X159314767Y-82096045D01*
X159314767Y-82096046D01*
X159307010Y-82121616D01*
X159254699Y-82294064D01*
X159254699Y-82294065D01*
X159254690Y-82294162D01*
X159234416Y-82500000D01*
X158805583Y-82500000D01*
X158785300Y-82294066D01*
X158725232Y-82096046D01*
X158627685Y-81913550D01*
X158496410Y-81753590D01*
X158336450Y-81622315D01*
X158153954Y-81524768D01*
X157955934Y-81464700D01*
X157750000Y-81444417D01*
X157544065Y-81464700D01*
X157544064Y-81464700D01*
X157346043Y-81524769D01*
X157163548Y-81622316D01*
X157003590Y-81753590D01*
X156872316Y-81913548D01*
X156774769Y-82096043D01*
X156774768Y-82096045D01*
X156774768Y-82096046D01*
X156767011Y-82121616D01*
X156714700Y-82294064D01*
X156714700Y-82294065D01*
X156714691Y-82294162D01*
X156694417Y-82500000D01*
X156260500Y-82500000D01*
X156260500Y-81630255D01*
X156260500Y-81630252D01*
X156248867Y-81571769D01*
X156217462Y-81524769D01*
X156204552Y-81505447D01*
X156164795Y-81478882D01*
X156138231Y-81461133D01*
X156079748Y-81449500D01*
X154340252Y-81449500D01*
X154281769Y-81461133D01*
X154215447Y-81505447D01*
X154171133Y-81571769D01*
X154159500Y-81630252D01*
X154159500Y-81630255D01*
X154159500Y-83369752D01*
X154162306Y-83383862D01*
X154163247Y-83393522D01*
X154163244Y-83394525D01*
X154163246Y-83394539D01*
X154165212Y-83403257D01*
X154165970Y-83405542D01*
X154165814Y-83405593D01*
X154168000Y-83412486D01*
X154169084Y-83417933D01*
X154171133Y-83428232D01*
X154184273Y-83447897D01*
X154188306Y-83455216D01*
X154197789Y-83476548D01*
X154197795Y-83476559D01*
X154602445Y-84049813D01*
X154602447Y-84049816D01*
X154606824Y-84056016D01*
X154606824Y-84056017D01*
X154750531Y-84259601D01*
X154759500Y-84287858D01*
X154759500Y-86083100D01*
X154745148Y-86117748D01*
X152719423Y-88143472D01*
X152711268Y-88150044D01*
X152701952Y-88156031D01*
X152701950Y-88156032D01*
X152671219Y-88191499D01*
X152668837Y-88194058D01*
X152639512Y-88223385D01*
X152639507Y-88223391D01*
X152633702Y-88233445D01*
X152628303Y-88241026D01*
X152617120Y-88253933D01*
X152617115Y-88253940D01*
X152600091Y-88291215D01*
X152597957Y-88295356D01*
X152580200Y-88326115D01*
X152575643Y-88343120D01*
X152572886Y-88350789D01*
X152563303Y-88371773D01*
X152563303Y-88371774D01*
X152558317Y-88406443D01*
X152557147Y-88412146D01*
X152549501Y-88440688D01*
X152549501Y-88464266D01*
X152549002Y-88471239D01*
X152544867Y-88500000D01*
X152548461Y-88525000D01*
X152549002Y-88528758D01*
X152549501Y-88535732D01*
X152549501Y-88559309D01*
X152557147Y-88587851D01*
X152558317Y-88593556D01*
X152563303Y-88628224D01*
X152563304Y-88628229D01*
X152572886Y-88649211D01*
X152575644Y-88656883D01*
X152580200Y-88673885D01*
X152580202Y-88673889D01*
X152595854Y-88701000D01*
X152600749Y-88738183D01*
X152577919Y-88767935D01*
X152553419Y-88774500D01*
X149655062Y-88774500D01*
X149572280Y-88796681D01*
X149572277Y-88796682D01*
X149498055Y-88839535D01*
X149498055Y-88839536D01*
X146239536Y-92098055D01*
X146239535Y-92098055D01*
X146196683Y-92172275D01*
X146196682Y-92172279D01*
X146182385Y-92225638D01*
X146182385Y-92225639D01*
X146174500Y-92255063D01*
X146174500Y-95448124D01*
X146172899Y-95460547D01*
X146072822Y-95842392D01*
X146072819Y-95842404D01*
X146072574Y-95844981D01*
X146068369Y-95860679D01*
X146063301Y-95871775D01*
X146044867Y-95999997D01*
X143950000Y-95999997D01*
X143950000Y-95337312D01*
X143935200Y-95224895D01*
X143877264Y-95085023D01*
X143877261Y-95085018D01*
X143785095Y-94964905D01*
X143785094Y-94964904D01*
X143664981Y-94872738D01*
X143664976Y-94872735D01*
X143525104Y-94814799D01*
X143412688Y-94800000D01*
X142350000Y-94800000D01*
X142350000Y-99900000D01*
X142150000Y-99900000D01*
X142150000Y-94800000D01*
X141087312Y-94800000D01*
X140974895Y-94814799D01*
X140835023Y-94872735D01*
X140835018Y-94872738D01*
X140714905Y-94964904D01*
X140714904Y-94964905D01*
X140622738Y-95085018D01*
X140622735Y-95085023D01*
X140564799Y-95224895D01*
X140550000Y-95337312D01*
X140200500Y-95337312D01*
X140200500Y-83499997D01*
X145594584Y-83499997D01*
X145594584Y-83500002D01*
X145614228Y-83837294D01*
X145672899Y-84170030D01*
X145672900Y-84170035D01*
X145699713Y-84259597D01*
X145769800Y-84493706D01*
X145769801Y-84493709D01*
X145769802Y-84493711D01*
X145903015Y-84802535D01*
X145903624Y-84803945D01*
X145903628Y-84803954D01*
X146016817Y-85000002D01*
X146072560Y-85096552D01*
X146112468Y-85150157D01*
X146274324Y-85367568D01*
X146506182Y-85613322D01*
X146506183Y-85613323D01*
X146765006Y-85830502D01*
X147047292Y-86016164D01*
X147349224Y-86167800D01*
X147666717Y-86283358D01*
X147995480Y-86361276D01*
X148331065Y-86400500D01*
X148331069Y-86400500D01*
X148668930Y-86400500D01*
X148668935Y-86400500D01*
X149004520Y-86361276D01*
X149333283Y-86283358D01*
X149650776Y-86167800D01*
X149952708Y-86016164D01*
X150234994Y-85830502D01*
X150493817Y-85613323D01*
X150725678Y-85367565D01*
X150927440Y-85096552D01*
X151096375Y-84803948D01*
X151230198Y-84493711D01*
X151327100Y-84170035D01*
X151385771Y-83837298D01*
X151405416Y-83500000D01*
X151404470Y-83483764D01*
X151389435Y-83225610D01*
X151385771Y-83162702D01*
X151327100Y-82829965D01*
X151230198Y-82506289D01*
X151096375Y-82196052D01*
X150927440Y-81903448D01*
X150725678Y-81632435D01*
X150725677Y-81632434D01*
X150725675Y-81632431D01*
X150493817Y-81386677D01*
X150234996Y-81169500D01*
X150234994Y-81169498D01*
X149952708Y-80983836D01*
X149947505Y-80981223D01*
X149650779Y-80832201D01*
X149333292Y-80716645D01*
X149333287Y-80716643D01*
X149333283Y-80716642D01*
X149215052Y-80688620D01*
X149004526Y-80638725D01*
X149004523Y-80638724D01*
X148860697Y-80621913D01*
X148668935Y-80599500D01*
X148331065Y-80599500D01*
X148163272Y-80619112D01*
X147995476Y-80638724D01*
X147995473Y-80638725D01*
X147666717Y-80716642D01*
X147666707Y-80716645D01*
X147349220Y-80832201D01*
X147047295Y-80983834D01*
X147047290Y-80983837D01*
X146765003Y-81169500D01*
X146506182Y-81386677D01*
X146274324Y-81632431D01*
X146072557Y-81903452D01*
X145903628Y-82196045D01*
X145903624Y-82196054D01*
X145769800Y-82506293D01*
X145672899Y-82829969D01*
X145614228Y-83162705D01*
X145594584Y-83499997D01*
X140200500Y-83499997D01*
X140200500Y-80249500D01*
X140214852Y-80214852D01*
X140249500Y-80200500D01*
X179750500Y-80200500D01*
X179785148Y-80214852D01*
G37*
%TD.AperFunction*%
%TD*%
%TA.AperFunction,NonConductor*%
G36*
X160449086Y-84589852D02*
G01*
X160463438Y-84624500D01*
X160451470Y-84656588D01*
X160367118Y-84753935D01*
X160367116Y-84753939D01*
X160350471Y-84790385D01*
X160342564Y-84802535D01*
X160336497Y-84809377D01*
X160336493Y-84809382D01*
X160137251Y-85150157D01*
X160129599Y-85160073D01*
X157104525Y-88185148D01*
X157069877Y-88199500D01*
X156551877Y-88199500D01*
X156539454Y-88197899D01*
X156356861Y-88150044D01*
X156204485Y-88110108D01*
X156174610Y-88087442D01*
X156169511Y-88050287D01*
X156182260Y-88028064D01*
X159620474Y-84589852D01*
X159655122Y-84575500D01*
X160414438Y-84575500D01*
X160449086Y-84589852D01*
G37*
%TD.AperFunction*%
%TA.AperFunction,NonConductor*%
G36*
X162379733Y-88204637D02*
G01*
X162650154Y-88362745D01*
X162660070Y-88370397D01*
X162948690Y-88659017D01*
X162948942Y-88659162D01*
X162949031Y-88659278D01*
X162951237Y-88660971D01*
X162950783Y-88661562D01*
X162971772Y-88688914D01*
X162966878Y-88726096D01*
X162938247Y-88748612D01*
X162810933Y-88785995D01*
X162701950Y-88856033D01*
X162617118Y-88953935D01*
X162617116Y-88953939D01*
X162598111Y-88995551D01*
X162591412Y-89006286D01*
X162582831Y-89016737D01*
X162582830Y-89016739D01*
X162512300Y-89148608D01*
X162483303Y-89172392D01*
X162469092Y-89174498D01*
X162096149Y-89174498D01*
X162061501Y-89160146D01*
X162047149Y-89125498D01*
X162061501Y-89090850D01*
X162071417Y-89083198D01*
X162190610Y-89013508D01*
X162190615Y-89013505D01*
X162190614Y-89013505D01*
X162190617Y-89013504D01*
X162191048Y-89013147D01*
X162195766Y-89009698D01*
X162298049Y-88943967D01*
X162382882Y-88846063D01*
X162436697Y-88728226D01*
X162436697Y-88728224D01*
X162436698Y-88728223D01*
X162455133Y-88600002D01*
X162455133Y-88599997D01*
X162436698Y-88471776D01*
X162391028Y-88371774D01*
X162382882Y-88353937D01*
X162373151Y-88342706D01*
X162317973Y-88279026D01*
X162306130Y-88243442D01*
X162322917Y-88209906D01*
X162358501Y-88198063D01*
X162379733Y-88204637D01*
G37*
%TD.AperFunction*%
%TA.AperFunction,NonConductor*%
G36*
X162055761Y-90639852D02*
G01*
X162070113Y-90674500D01*
X162058145Y-90706588D01*
X162017118Y-90753935D01*
X162017116Y-90753939D01*
X162000471Y-90790385D01*
X161992564Y-90802535D01*
X161986497Y-90809377D01*
X161986493Y-90809382D01*
X161787251Y-91150157D01*
X161779599Y-91160073D01*
X160679525Y-92260148D01*
X160644877Y-92274500D01*
X159904123Y-92274500D01*
X159869475Y-92260148D01*
X159855123Y-92225500D01*
X159869475Y-92190852D01*
X160010827Y-92049500D01*
X160539929Y-91520396D01*
X160549841Y-91512748D01*
X160628845Y-91466556D01*
X160890617Y-91313504D01*
X160891048Y-91313147D01*
X160895766Y-91309698D01*
X160998049Y-91243967D01*
X161082882Y-91146063D01*
X161136697Y-91028226D01*
X161136697Y-91028224D01*
X161136698Y-91028223D01*
X161155133Y-90900002D01*
X161155133Y-90899997D01*
X161136698Y-90771776D01*
X161108201Y-90709377D01*
X161101568Y-90694855D01*
X161100230Y-90657377D01*
X161125785Y-90629928D01*
X161146141Y-90625500D01*
X162021113Y-90625500D01*
X162055761Y-90639852D01*
G37*
%TD.AperFunction*%
%TA.AperFunction,NonConductor*%
G36*
X171960548Y-94577101D02*
G01*
X172079594Y-94608301D01*
X172342396Y-94677178D01*
X172357583Y-94678624D01*
X172366722Y-94680385D01*
X172423295Y-94696996D01*
X172435224Y-94700499D01*
X172435228Y-94700500D01*
X172564772Y-94700500D01*
X172627465Y-94682092D01*
X172664752Y-94686101D01*
X172688284Y-94715302D01*
X172684275Y-94752590D01*
X172675917Y-94763755D01*
X172379525Y-95060148D01*
X172344877Y-95074500D01*
X171060867Y-95074500D01*
X171026219Y-95060148D01*
X171011867Y-95025500D01*
X171023834Y-94993413D01*
X171029287Y-94987120D01*
X171083102Y-94869283D01*
X171083102Y-94869281D01*
X171083103Y-94869280D01*
X171101538Y-94741059D01*
X171101538Y-94741055D01*
X171094373Y-94691225D01*
X171085782Y-94631472D01*
X171095056Y-94595136D01*
X171127309Y-94575999D01*
X171134283Y-94575500D01*
X171948125Y-94575500D01*
X171960548Y-94577101D01*
G37*
%TD.AperFunction*%
%TA.AperFunction,NonConductor*%
G36*
X164183425Y-88738404D02*
G01*
X170026006Y-94580984D01*
X170033657Y-94590899D01*
X170064035Y-94642856D01*
X170232896Y-94931668D01*
X170232907Y-94931684D01*
X170240646Y-94941054D01*
X170247437Y-94951901D01*
X170263519Y-94987115D01*
X170263523Y-94987121D01*
X170268975Y-94993413D01*
X170280817Y-95028997D01*
X170264029Y-95062533D01*
X170231942Y-95074500D01*
X170055123Y-95074500D01*
X170020475Y-95060148D01*
X165590460Y-90630133D01*
X165586201Y-90625271D01*
X165570750Y-90605090D01*
X165570746Y-90605085D01*
X165527868Y-90567398D01*
X165525569Y-90565242D01*
X165449862Y-90489535D01*
X165423221Y-90474153D01*
X165415378Y-90468527D01*
X164958069Y-90066581D01*
X164942361Y-90039338D01*
X164938867Y-90021769D01*
X164922104Y-89996682D01*
X164894552Y-89955447D01*
X164838231Y-89917815D01*
X164828231Y-89911133D01*
X164769748Y-89899500D01*
X164769745Y-89899500D01*
X163201929Y-89899500D01*
X163194481Y-89898930D01*
X163189595Y-89898178D01*
X163187322Y-89897829D01*
X163187321Y-89897829D01*
X163178392Y-89898471D01*
X163178390Y-89898471D01*
X163178386Y-89898472D01*
X163161650Y-89903070D01*
X163158232Y-89903878D01*
X163121770Y-89911132D01*
X163120994Y-89911651D01*
X163106759Y-89918155D01*
X163101059Y-89919722D01*
X163101058Y-89919722D01*
X162851838Y-90044617D01*
X162814432Y-90047310D01*
X162802680Y-90041076D01*
X162802643Y-90041141D01*
X162800837Y-90040098D01*
X162800056Y-90039684D01*
X162799863Y-90039535D01*
X162725640Y-89996682D01*
X162725637Y-89996681D01*
X162642856Y-89974500D01*
X162642853Y-89974500D01*
X158342853Y-89974500D01*
X158257147Y-89974500D01*
X158257144Y-89974500D01*
X158174362Y-89996681D01*
X158174359Y-89996682D01*
X158100137Y-90039535D01*
X158100137Y-90039536D01*
X157729525Y-90410148D01*
X157694877Y-90424500D01*
X157546132Y-90424500D01*
X157515344Y-90413619D01*
X156936617Y-89946186D01*
X156936613Y-89946183D01*
X156936609Y-89946180D01*
X156909754Y-89930387D01*
X156888376Y-89917815D01*
X156885999Y-89916323D01*
X156884372Y-89915236D01*
X156863541Y-89884053D01*
X156870861Y-89847271D01*
X156902045Y-89826439D01*
X156911600Y-89825498D01*
X162742858Y-89825498D01*
X162742858Y-89825497D01*
X162825641Y-89803316D01*
X162899864Y-89760463D01*
X162938266Y-89722059D01*
X162954265Y-89711396D01*
X163163083Y-89625449D01*
X163167182Y-89622724D01*
X163180499Y-89616519D01*
X163189069Y-89614004D01*
X163189074Y-89614001D01*
X163298046Y-89543970D01*
X163298048Y-89543968D01*
X163298049Y-89543967D01*
X163382882Y-89446063D01*
X163436697Y-89328226D01*
X163436697Y-89328224D01*
X163436698Y-89328223D01*
X163455133Y-89200002D01*
X163455133Y-89199997D01*
X163436698Y-89071776D01*
X163429297Y-89055572D01*
X163382882Y-88953937D01*
X163298049Y-88856033D01*
X163233069Y-88814273D01*
X163211681Y-88783468D01*
X163218339Y-88746561D01*
X163249145Y-88725172D01*
X163259561Y-88724052D01*
X164148777Y-88724052D01*
X164183425Y-88738404D01*
G37*
%TD.AperFunction*%
%TA.AperFunction,NonConductor*%
G36*
X147281675Y-92919178D02*
G01*
X147305207Y-92948379D01*
X147301198Y-92985667D01*
X147292840Y-92996832D01*
X146989535Y-93300137D01*
X146946682Y-93374359D01*
X146945013Y-93380591D01*
X146945012Y-93380590D01*
X146945012Y-93380594D01*
X146924500Y-93457144D01*
X146924500Y-95451940D01*
X146910148Y-95486588D01*
X146875500Y-95500940D01*
X146840852Y-95486588D01*
X146828101Y-95464364D01*
X146827101Y-95460549D01*
X146825500Y-95448125D01*
X146825500Y-92966329D01*
X146839852Y-92931681D01*
X146874500Y-92917329D01*
X146888300Y-92919313D01*
X146973138Y-92944223D01*
X146994511Y-92950499D01*
X146994515Y-92950500D01*
X147124059Y-92950500D01*
X147124063Y-92950499D01*
X147188152Y-92931681D01*
X147244387Y-92915169D01*
X147281675Y-92919178D01*
G37*
%TD.AperFunction*%
%TA.AperFunction,Conductor*%
%TO.N,+3V3*%
G36*
X163222135Y-99341973D02*
G01*
X163228443Y-99348328D01*
X163229089Y-99355062D01*
X163151883Y-99740597D01*
X163146899Y-99748037D01*
X163140411Y-99750000D01*
X162859589Y-99750000D01*
X162851316Y-99746573D01*
X162848117Y-99740597D01*
X162845326Y-99726662D01*
X162770910Y-99355060D01*
X162772645Y-99346277D01*
X162777862Y-99341974D01*
X162995484Y-99250889D01*
X163004436Y-99250857D01*
X163222135Y-99341973D01*
G37*
%TD.AperFunction*%
%TD*%
%TA.AperFunction,Conductor*%
%TO.N,+3V3*%
G36*
X163148684Y-100503427D02*
G01*
X163151883Y-100509403D01*
X163229089Y-100894937D01*
X163227354Y-100903722D01*
X163222134Y-100908027D01*
X163004517Y-100999109D01*
X162995563Y-100999142D01*
X162995483Y-100999109D01*
X162777865Y-100908027D01*
X162771556Y-100901672D01*
X162770910Y-100894939D01*
X162848117Y-100509403D01*
X162853101Y-100501963D01*
X162859589Y-100500000D01*
X163140411Y-100500000D01*
X163148684Y-100503427D01*
G37*
%TD.AperFunction*%
%TD*%
%TA.AperFunction,Conductor*%
%TO.N,+3V3*%
G36*
X156272630Y-101453942D02*
G01*
X156682894Y-101565554D01*
X156689978Y-101571033D01*
X156691113Y-101579915D01*
X156690649Y-101581281D01*
X156601607Y-101798510D01*
X156599021Y-101802379D01*
X156432586Y-101967488D01*
X156424299Y-101970882D01*
X156416040Y-101967422D01*
X156415117Y-101966373D01*
X156131023Y-101601738D01*
X156128641Y-101593105D01*
X156131978Y-101586275D01*
X156261294Y-101456959D01*
X156269566Y-101453533D01*
X156272630Y-101453942D01*
G37*
%TD.AperFunction*%
%TD*%
%TA.AperFunction,Conductor*%
%TO.N,+3V3*%
G36*
X155577470Y-100583444D02*
G01*
X155583373Y-100588916D01*
X155767901Y-100950265D01*
X155768612Y-100959191D01*
X155765754Y-100963859D01*
X155636366Y-101093247D01*
X155628093Y-101096674D01*
X155622772Y-101095394D01*
X155353415Y-100957843D01*
X155261422Y-100910865D01*
X155255613Y-100904051D01*
X155255917Y-100896011D01*
X155344943Y-100678821D01*
X155351250Y-100672468D01*
X155568518Y-100583411D01*
X155577470Y-100583444D01*
G37*
%TD.AperFunction*%
%TD*%
%TA.AperFunction,Conductor*%
%TO.N,+3V3*%
G36*
X153971038Y-97966514D02*
G01*
X153977347Y-97972870D01*
X153977652Y-97980912D01*
X153852622Y-98366905D01*
X153846812Y-98373720D01*
X153841491Y-98375000D01*
X153658509Y-98375000D01*
X153650236Y-98371573D01*
X153647378Y-98366905D01*
X153522347Y-97980912D01*
X153523058Y-97971986D01*
X153528960Y-97966514D01*
X153745484Y-97875889D01*
X153754437Y-97875857D01*
X153971038Y-97966514D01*
G37*
%TD.AperFunction*%
%TD*%
%TA.AperFunction,Conductor*%
%TO.N,+3V3*%
G36*
X162724732Y-98829604D02*
G01*
X163086084Y-99014134D01*
X163091893Y-99020948D01*
X163091588Y-99028991D01*
X163002564Y-99246176D01*
X162996255Y-99252531D01*
X162996176Y-99252564D01*
X162778991Y-99341588D01*
X162770036Y-99341555D01*
X162764134Y-99336084D01*
X162579604Y-98974733D01*
X162578894Y-98965808D01*
X162581750Y-98961142D01*
X162711141Y-98831751D01*
X162719413Y-98828325D01*
X162724732Y-98829604D01*
G37*
%TD.AperFunction*%
%TD*%
%TA.AperFunction,Conductor*%
%TO.N,+3V3*%
G36*
X155218266Y-82507276D02*
G01*
X155882701Y-83172492D01*
X156053039Y-83343031D01*
X156056461Y-83351306D01*
X156054320Y-83358046D01*
X155463496Y-84195047D01*
X155455925Y-84199830D01*
X155453937Y-84200000D01*
X154966063Y-84200000D01*
X154957790Y-84196573D01*
X154956504Y-84195047D01*
X154774711Y-83937508D01*
X154365678Y-83358044D01*
X154363708Y-83349311D01*
X154366959Y-83343032D01*
X155201723Y-82507286D01*
X155209993Y-82503855D01*
X155218266Y-82507276D01*
G37*
%TD.AperFunction*%
%TD*%
%TA.AperFunction,Conductor*%
%TO.N,+3V3*%
G36*
X153979963Y-97783444D02*
G01*
X153985866Y-97788916D01*
X154170394Y-98150265D01*
X154171105Y-98159191D01*
X154168247Y-98163859D01*
X154038859Y-98293247D01*
X154030586Y-98296674D01*
X154025265Y-98295394D01*
X153755908Y-98157843D01*
X153663915Y-98110865D01*
X153658106Y-98104051D01*
X153658410Y-98096011D01*
X153747436Y-97878821D01*
X153753743Y-97872468D01*
X153971011Y-97783411D01*
X153979963Y-97783444D01*
G37*
%TD.AperFunction*%
%TD*%
%TA.AperFunction,Conductor*%
%TO.N,+3V3*%
G36*
X155072239Y-100254604D02*
G01*
X155433591Y-100439134D01*
X155439400Y-100445948D01*
X155439095Y-100453991D01*
X155350071Y-100671176D01*
X155343762Y-100677531D01*
X155343683Y-100677564D01*
X155126498Y-100766588D01*
X155117543Y-100766555D01*
X155111641Y-100761084D01*
X154927111Y-100399733D01*
X154926401Y-100390808D01*
X154929257Y-100386142D01*
X155058648Y-100256751D01*
X155066920Y-100253325D01*
X155072239Y-100254604D01*
G37*
%TD.AperFunction*%
%TD*%
%TA.AperFunction,Conductor*%
%TO.N,/MCU/PS2_ACK*%
G36*
X163378434Y-92408183D02*
G01*
X163596175Y-92497435D01*
X163602531Y-92503744D01*
X163602564Y-92503824D01*
X163691815Y-92721564D01*
X163691782Y-92730518D01*
X163686894Y-92736101D01*
X163342629Y-92937385D01*
X163333758Y-92938603D01*
X163328451Y-92935558D01*
X163164441Y-92771548D01*
X163161014Y-92763275D01*
X163162612Y-92757374D01*
X163363899Y-92413103D01*
X163371032Y-92407692D01*
X163378434Y-92408183D01*
G37*
%TD.AperFunction*%
%TD*%
%TA.AperFunction,Conductor*%
%TO.N,/MCU/PS2_ACK*%
G36*
X147021548Y-109814441D02*
G01*
X147185558Y-109978451D01*
X147188985Y-109986724D01*
X147187385Y-109992629D01*
X146986101Y-110336894D01*
X146978967Y-110342307D01*
X146971564Y-110341815D01*
X146753824Y-110252564D01*
X146747468Y-110246255D01*
X146747435Y-110246175D01*
X146658184Y-110028435D01*
X146658217Y-110019481D01*
X146663103Y-110013899D01*
X147007373Y-109812613D01*
X147016241Y-109811396D01*
X147021548Y-109814441D01*
G37*
%TD.AperFunction*%
%TD*%
%TA.AperFunction,Conductor*%
%TO.N,/MCU/PS2_SCK*%
G36*
X146727438Y-106308758D02*
G01*
X146728508Y-106309989D01*
X146920677Y-106565124D01*
X146922917Y-106573794D01*
X146919627Y-106580413D01*
X146753450Y-106747530D01*
X146745187Y-106750980D01*
X146745107Y-106750980D01*
X146511016Y-106750044D01*
X146502757Y-106746584D01*
X146499381Y-106739002D01*
X146475695Y-106317688D01*
X146478653Y-106309235D01*
X146486720Y-106305349D01*
X146487377Y-106305331D01*
X146719165Y-106305331D01*
X146727438Y-106308758D01*
G37*
%TD.AperFunction*%
%TD*%
%TA.AperFunction,Conductor*%
%TO.N,/MCU/PS2_SCK*%
G36*
X160478434Y-90808183D02*
G01*
X160696175Y-90897435D01*
X160702531Y-90903744D01*
X160702564Y-90903824D01*
X160791815Y-91121564D01*
X160791782Y-91130518D01*
X160786894Y-91136101D01*
X160442629Y-91337385D01*
X160433758Y-91338603D01*
X160428451Y-91335558D01*
X160264441Y-91171548D01*
X160261014Y-91163275D01*
X160262612Y-91157374D01*
X160463899Y-90813103D01*
X160471032Y-90807692D01*
X160478434Y-90808183D01*
G37*
%TD.AperFunction*%
%TD*%
%TA.AperFunction,Conductor*%
%TO.N,/MCU/PS2_ATT*%
G36*
X162178434Y-90908183D02*
G01*
X162396175Y-90997435D01*
X162402531Y-91003744D01*
X162402564Y-91003824D01*
X162491815Y-91221564D01*
X162491782Y-91230518D01*
X162486894Y-91236101D01*
X162142629Y-91437385D01*
X162133758Y-91438603D01*
X162128451Y-91435558D01*
X161964441Y-91271548D01*
X161961014Y-91263275D01*
X161962612Y-91257374D01*
X162163899Y-90913103D01*
X162171032Y-90907692D01*
X162178434Y-90908183D01*
G37*
%TD.AperFunction*%
%TD*%
%TA.AperFunction,Conductor*%
%TO.N,/MCU/PS2_ATT*%
G36*
X147446548Y-103022904D02*
G01*
X147610558Y-103186914D01*
X147613985Y-103195187D01*
X147612385Y-103201092D01*
X147411101Y-103545357D01*
X147403967Y-103550770D01*
X147396564Y-103550278D01*
X147178824Y-103461027D01*
X147172468Y-103454718D01*
X147172435Y-103454638D01*
X147083184Y-103236898D01*
X147083217Y-103227944D01*
X147088103Y-103222362D01*
X147432373Y-103021076D01*
X147441241Y-103019859D01*
X147446548Y-103022904D01*
G37*
%TD.AperFunction*%
%TD*%
%TA.AperFunction,Conductor*%
%TO.N,/MCU/PS2_CMD*%
G36*
X161778434Y-88508183D02*
G01*
X161996175Y-88597435D01*
X162002531Y-88603744D01*
X162002564Y-88603824D01*
X162091815Y-88821564D01*
X162091782Y-88830518D01*
X162086894Y-88836101D01*
X161742629Y-89037385D01*
X161733758Y-89038603D01*
X161728451Y-89035558D01*
X161564441Y-88871548D01*
X161561014Y-88863275D01*
X161562612Y-88857374D01*
X161763899Y-88513103D01*
X161771032Y-88507692D01*
X161778434Y-88508183D01*
G37*
%TD.AperFunction*%
%TD*%
%TA.AperFunction,Conductor*%
%TO.N,/MCU/PS2_CMD*%
G36*
X146624244Y-95503427D02*
G01*
X146627289Y-95508734D01*
X146728392Y-95894495D01*
X146727174Y-95903366D01*
X146721591Y-95908254D01*
X146504517Y-95999109D01*
X146495563Y-95999142D01*
X146495483Y-95999109D01*
X146278408Y-95908254D01*
X146272099Y-95901898D01*
X146271607Y-95894495D01*
X146372711Y-95508734D01*
X146378124Y-95501600D01*
X146384029Y-95500000D01*
X146615971Y-95500000D01*
X146624244Y-95503427D01*
G37*
%TD.AperFunction*%
%TD*%
%TA.AperFunction,Conductor*%
%TO.N,/MCU/PS2_DATA*%
G36*
X162778813Y-89108363D02*
G01*
X162996486Y-89198138D01*
X163002828Y-89204460D01*
X163002851Y-89204517D01*
X163091240Y-89420160D01*
X163091207Y-89429114D01*
X163084867Y-89435416D01*
X162640415Y-89618349D01*
X162631460Y-89618329D01*
X162625143Y-89611983D01*
X162624262Y-89607530D01*
X162624262Y-89377930D01*
X162625645Y-89372412D01*
X162764039Y-89113660D01*
X162770961Y-89107983D01*
X162778813Y-89108363D01*
G37*
%TD.AperFunction*%
%TD*%
%TA.AperFunction,Conductor*%
%TO.N,/MCU/PS2_DATA*%
G36*
X147330835Y-92064441D02*
G01*
X147494845Y-92228451D01*
X147498272Y-92236724D01*
X147496672Y-92242629D01*
X147295388Y-92586894D01*
X147288254Y-92592307D01*
X147280851Y-92591815D01*
X147063111Y-92502564D01*
X147056755Y-92496255D01*
X147056722Y-92496175D01*
X146967471Y-92278435D01*
X146967504Y-92269481D01*
X146972390Y-92263899D01*
X147316660Y-92062613D01*
X147325528Y-92061396D01*
X147330835Y-92064441D01*
G37*
%TD.AperFunction*%
%TD*%
%TA.AperFunction,Conductor*%
%TO.N,/Debugging/~{RST}*%
G36*
X163613752Y-82179064D02*
G01*
X163619941Y-82185086D01*
X163762683Y-82503785D01*
X164112715Y-83285298D01*
X164202944Y-83486750D01*
X164203198Y-83495702D01*
X164200539Y-83499806D01*
X163998959Y-83701386D01*
X163990686Y-83704813D01*
X163987504Y-83704372D01*
X162517368Y-83288873D01*
X162510339Y-83283325D01*
X162509291Y-83274432D01*
X162509736Y-83273148D01*
X162827438Y-82503783D01*
X162833759Y-82497448D01*
X163604797Y-82179055D01*
X163613752Y-82179064D01*
G37*
%TD.AperFunction*%
%TD*%
%TA.AperFunction,Conductor*%
%TO.N,/Debugging/~{RST}*%
G36*
X169648684Y-91503427D02*
G01*
X169651883Y-91509403D01*
X169729089Y-91894937D01*
X169727354Y-91903722D01*
X169722134Y-91908027D01*
X169504517Y-91999109D01*
X169495563Y-91999142D01*
X169495483Y-91999109D01*
X169277865Y-91908027D01*
X169271556Y-91901672D01*
X169270910Y-91894939D01*
X169348117Y-91509403D01*
X169353101Y-91501963D01*
X169359589Y-91500000D01*
X169640411Y-91500000D01*
X169648684Y-91503427D01*
G37*
%TD.AperFunction*%
%TD*%
%TA.AperFunction,Conductor*%
%TO.N,/Debugging/DBG_SWCLK*%
G36*
X155337263Y-88242104D02*
G01*
X155338197Y-88242943D01*
X155502073Y-88406819D01*
X155505500Y-88415092D01*
X155502073Y-88423365D01*
X155501407Y-88423982D01*
X155184966Y-88694766D01*
X155176452Y-88697541D01*
X155169119Y-88694182D01*
X155002763Y-88529151D01*
X154999304Y-88520895D01*
X154999968Y-88285475D01*
X155003418Y-88277214D01*
X155010413Y-88273877D01*
X155328673Y-88239583D01*
X155337263Y-88242104D01*
G37*
%TD.AperFunction*%
%TD*%
%TA.AperFunction,Conductor*%
%TO.N,/Debugging/DBG_SWCLK*%
G36*
X162153366Y-84022825D02*
G01*
X162158254Y-84028408D01*
X162249109Y-84245483D01*
X162249142Y-84254437D01*
X162249109Y-84254517D01*
X162158254Y-84471591D01*
X162151898Y-84477900D01*
X162144495Y-84478392D01*
X161758734Y-84377289D01*
X161751600Y-84371876D01*
X161750000Y-84365971D01*
X161750000Y-84134028D01*
X161753427Y-84125755D01*
X161758731Y-84122711D01*
X162144495Y-84021607D01*
X162153366Y-84022825D01*
G37*
%TD.AperFunction*%
%TD*%
%TA.AperFunction,Conductor*%
%TO.N,Net-(SW201-A)*%
G36*
X156807486Y-90106047D02*
G01*
X157445652Y-90621488D01*
X157449934Y-90629352D01*
X157450000Y-90630590D01*
X157450000Y-90869409D01*
X157446573Y-90877682D01*
X157445652Y-90878511D01*
X156807486Y-91393952D01*
X156798896Y-91396484D01*
X156792621Y-91393819D01*
X156177422Y-90878511D01*
X156034706Y-90758968D01*
X156030565Y-90751030D01*
X156033251Y-90742487D01*
X156034703Y-90741034D01*
X156792622Y-90106179D01*
X156801164Y-90103494D01*
X156807486Y-90106047D01*
G37*
%TD.AperFunction*%
%TD*%
%TA.AperFunction,Conductor*%
%TO.N,Net-(SW201-A)*%
G36*
X173402188Y-88099915D02*
G01*
X173431684Y-88112261D01*
X173619067Y-88190689D01*
X173625376Y-88197045D01*
X173625343Y-88205999D01*
X173624851Y-88207030D01*
X173428314Y-88571925D01*
X173421374Y-88577584D01*
X173418013Y-88578077D01*
X173186104Y-88578077D01*
X173177831Y-88574650D01*
X173174420Y-88566988D01*
X173150641Y-88112261D01*
X173153631Y-88103820D01*
X173161714Y-88099966D01*
X173162241Y-88099951D01*
X173397627Y-88099009D01*
X173402188Y-88099915D01*
G37*
%TD.AperFunction*%
%TD*%
%TA.AperFunction,Conductor*%
%TO.N,Net-(SW201-A)*%
G36*
X163205887Y-90104938D02*
G01*
X163963056Y-90740095D01*
X163967192Y-90748037D01*
X163964501Y-90756577D01*
X163961501Y-90759124D01*
X163208663Y-91205223D01*
X163199799Y-91206492D01*
X163193633Y-91202553D01*
X163092866Y-91079047D01*
X162614741Y-90493025D01*
X162612168Y-90484451D01*
X162615534Y-90477359D01*
X162783498Y-90309395D01*
X162786523Y-90307212D01*
X163193130Y-90103442D01*
X163202059Y-90102800D01*
X163205887Y-90104938D01*
G37*
%TD.AperFunction*%
%TD*%
%TA.AperFunction,Conductor*%
%TO.N,Net-(SW201-A)*%
G36*
X164757200Y-90163625D02*
G01*
X165435081Y-90759439D01*
X165439033Y-90767475D01*
X165436145Y-90775951D01*
X165435630Y-90776500D01*
X165267937Y-90944193D01*
X165267393Y-90944703D01*
X164757546Y-91393358D01*
X164749072Y-91396251D01*
X164742298Y-91393539D01*
X163985493Y-90758688D01*
X163981357Y-90750745D01*
X163984048Y-90742205D01*
X163985907Y-90740428D01*
X164742379Y-90163111D01*
X164751034Y-90160817D01*
X164757200Y-90163625D01*
G37*
%TD.AperFunction*%
%TD*%
%TA.AperFunction,Conductor*%
%TO.N,/MCU/LED_B (TIM3_CH3)*%
G36*
X163991267Y-87622731D02*
G01*
X163998400Y-87628143D01*
X164000000Y-87634048D01*
X164000000Y-87865991D01*
X163996573Y-87874264D01*
X163991266Y-87877309D01*
X163605504Y-87978412D01*
X163596633Y-87977194D01*
X163591745Y-87971611D01*
X163500889Y-87754535D01*
X163500857Y-87745583D01*
X163591746Y-87528426D01*
X163598101Y-87522119D01*
X163605504Y-87521627D01*
X163991267Y-87622731D01*
G37*
%TD.AperFunction*%
%TD*%
%TA.AperFunction,Conductor*%
%TO.N,/MCU/LED_B (TIM3_CH3)*%
G36*
X172403366Y-94022825D02*
G01*
X172408254Y-94028408D01*
X172499109Y-94245483D01*
X172499142Y-94254437D01*
X172499109Y-94254517D01*
X172408254Y-94471591D01*
X172401898Y-94477900D01*
X172394495Y-94478392D01*
X172008734Y-94377289D01*
X172001600Y-94371876D01*
X172000000Y-94365971D01*
X172000000Y-94134028D01*
X172003427Y-94125755D01*
X172008731Y-94122711D01*
X172394495Y-94021607D01*
X172403366Y-94022825D01*
G37*
%TD.AperFunction*%
%TD*%
%TA.AperFunction,Conductor*%
%TO.N,/MCU/LED_G (TIM3_CH4)*%
G36*
X170389030Y-94303670D02*
G01*
X170733299Y-94504955D01*
X170738712Y-94512089D01*
X170738220Y-94519492D01*
X170648969Y-94737232D01*
X170642660Y-94743588D01*
X170642580Y-94743621D01*
X170424840Y-94832872D01*
X170415886Y-94832839D01*
X170410303Y-94827951D01*
X170209018Y-94483683D01*
X170207801Y-94474815D01*
X170210844Y-94469510D01*
X170374857Y-94305497D01*
X170383129Y-94302071D01*
X170389030Y-94303670D01*
G37*
%TD.AperFunction*%
%TD*%
%TA.AperFunction,Conductor*%
%TO.N,/MCU/LED_G (TIM3_CH4)*%
G36*
X162730518Y-87658217D02*
G01*
X162736101Y-87663105D01*
X162937385Y-88007371D01*
X162938603Y-88016241D01*
X162935558Y-88021548D01*
X162771548Y-88185558D01*
X162763275Y-88188985D01*
X162757371Y-88187385D01*
X162413105Y-87986101D01*
X162407692Y-87978967D01*
X162408183Y-87971565D01*
X162497436Y-87753822D01*
X162503743Y-87747468D01*
X162721565Y-87658184D01*
X162730518Y-87658217D01*
G37*
%TD.AperFunction*%
%TD*%
%TA.AperFunction,Conductor*%
%TO.N,/MCU/LED_R (TIM3_CH1)*%
G36*
X162930518Y-93508217D02*
G01*
X162936101Y-93513105D01*
X163137385Y-93857371D01*
X163138603Y-93866241D01*
X163135558Y-93871548D01*
X162971548Y-94035558D01*
X162963275Y-94038985D01*
X162957371Y-94037385D01*
X162613105Y-93836101D01*
X162607692Y-93828967D01*
X162608183Y-93821565D01*
X162697436Y-93603822D01*
X162703743Y-93597468D01*
X162921565Y-93508184D01*
X162930518Y-93508217D01*
G37*
%TD.AperFunction*%
%TD*%
%TA.AperFunction,Conductor*%
%TO.N,/MCU/LED_R (TIM3_CH1)*%
G36*
X171879177Y-98479193D02*
G01*
X172282013Y-98566084D01*
X172289377Y-98571177D01*
X172290982Y-98579987D01*
X172290371Y-98581957D01*
X172201607Y-98798510D01*
X172199021Y-98802379D01*
X172031433Y-98968631D01*
X172023146Y-98972025D01*
X172014983Y-98968660D01*
X171704568Y-98662899D01*
X171701078Y-98654652D01*
X171704443Y-98646354D01*
X171868439Y-98482357D01*
X171876711Y-98478931D01*
X171879177Y-98479193D01*
G37*
%TD.AperFunction*%
%TD*%
%TA.AperFunction,Conductor*%
%TO.N,/Debugging/DBG_SWDIO*%
G36*
X156491267Y-88397711D02*
G01*
X156498400Y-88403123D01*
X156500000Y-88409028D01*
X156500000Y-88640971D01*
X156496573Y-88649244D01*
X156491266Y-88652289D01*
X156105504Y-88753392D01*
X156096633Y-88752174D01*
X156091745Y-88746591D01*
X156000889Y-88529515D01*
X156000857Y-88520563D01*
X156091746Y-88303406D01*
X156098101Y-88297099D01*
X156105504Y-88296607D01*
X156491267Y-88397711D01*
G37*
%TD.AperFunction*%
%TD*%
%TA.AperFunction,Conductor*%
%TO.N,/Debugging/DBG_SWDIO*%
G36*
X160528434Y-84908183D02*
G01*
X160746175Y-84997435D01*
X160752531Y-85003744D01*
X160752564Y-85003824D01*
X160841815Y-85221564D01*
X160841782Y-85230518D01*
X160836894Y-85236101D01*
X160492629Y-85437385D01*
X160483758Y-85438603D01*
X160478451Y-85435558D01*
X160314441Y-85271548D01*
X160311014Y-85263275D01*
X160312612Y-85257374D01*
X160513899Y-84913103D01*
X160521032Y-84907692D01*
X160528434Y-84908183D01*
G37*
%TD.AperFunction*%
%TD*%
%TA.AperFunction,Conductor*%
%TO.N,/MCU/CC1101_GDO2*%
G36*
X158721460Y-95196744D02*
G01*
X158727769Y-95203100D01*
X158728074Y-95211142D01*
X158603044Y-95597135D01*
X158597234Y-95603950D01*
X158591913Y-95605230D01*
X158408931Y-95605230D01*
X158400658Y-95601803D01*
X158397800Y-95597135D01*
X158272769Y-95211142D01*
X158273480Y-95202216D01*
X158279382Y-95196744D01*
X158495906Y-95106119D01*
X158504859Y-95106087D01*
X158721460Y-95196744D01*
G37*
%TD.AperFunction*%
%TD*%
%TA.AperFunction,Conductor*%
%TO.N,/MCU/CC1101_SCK*%
G36*
X160076870Y-96944519D02*
G01*
X160082773Y-96949991D01*
X160267301Y-97311340D01*
X160268012Y-97320266D01*
X160265154Y-97324934D01*
X160135766Y-97454322D01*
X160127493Y-97457749D01*
X160122172Y-97456469D01*
X159852815Y-97318918D01*
X159760822Y-97271940D01*
X159755013Y-97265126D01*
X159755317Y-97257086D01*
X159844343Y-97039896D01*
X159850650Y-97033543D01*
X160067918Y-96944486D01*
X160076870Y-96944519D01*
G37*
%TD.AperFunction*%
%TD*%
%TA.AperFunction,Conductor*%
%TO.N,/MCU/CC1101_SCK*%
G36*
X160903013Y-97273058D02*
G01*
X160908485Y-97278961D01*
X160999109Y-97495483D01*
X160999142Y-97504437D01*
X160999109Y-97504517D01*
X160908485Y-97721038D01*
X160902129Y-97727347D01*
X160894087Y-97727652D01*
X160508095Y-97602622D01*
X160501280Y-97596812D01*
X160500000Y-97591491D01*
X160500000Y-97408508D01*
X160503427Y-97400235D01*
X160508091Y-97397378D01*
X160894088Y-97272347D01*
X160903013Y-97273058D01*
G37*
%TD.AperFunction*%
%TD*%
%TA.AperFunction,Conductor*%
%TO.N,/MCU/CC1101_GDO0*%
G36*
X155763034Y-97712111D02*
G01*
X155763451Y-97712508D01*
X155892699Y-97841756D01*
X155896126Y-97850029D01*
X155896125Y-97850162D01*
X155892267Y-98188465D01*
X155888746Y-98196699D01*
X155880601Y-98200032D01*
X155646321Y-98200693D01*
X155638038Y-98197289D01*
X155473170Y-98031097D01*
X155469777Y-98022811D01*
X155472806Y-98015003D01*
X155746510Y-97712923D01*
X155754602Y-97709095D01*
X155763034Y-97712111D01*
G37*
%TD.AperFunction*%
%TD*%
%TA.AperFunction,Conductor*%
%TO.N,/MCU/CC1101_GDO0*%
G36*
X157721038Y-94791520D02*
G01*
X157727347Y-94797876D01*
X157727652Y-94805918D01*
X157602622Y-95191911D01*
X157596812Y-95198726D01*
X157591491Y-95200006D01*
X157408509Y-95200006D01*
X157400236Y-95196579D01*
X157397378Y-95191911D01*
X157272347Y-94805918D01*
X157273058Y-94796992D01*
X157278960Y-94791520D01*
X157495484Y-94700895D01*
X157504437Y-94700863D01*
X157721038Y-94791520D01*
G37*
%TD.AperFunction*%
%TD*%
%TA.AperFunction,Conductor*%
%TO.N,/MCU/CC1101_GDO2*%
G36*
X158603385Y-96105388D02*
G01*
X158915032Y-96315325D01*
X158919979Y-96322790D01*
X158918199Y-96331566D01*
X158916791Y-96333279D01*
X158751668Y-96499335D01*
X158747809Y-96501911D01*
X158531647Y-96590513D01*
X158522693Y-96590480D01*
X158516384Y-96584124D01*
X158515837Y-96582436D01*
X158403901Y-96117831D01*
X158405295Y-96108987D01*
X158412536Y-96103717D01*
X158415276Y-96103392D01*
X158596848Y-96103392D01*
X158603385Y-96105388D01*
G37*
%TD.AperFunction*%
%TD*%
M02*
