%TF.GenerationSoftware,KiCad,Pcbnew,8.0.4-8.0.4-0~ubuntu22.04.1*%
%TF.CreationDate,2024-08-23T19:00:27-03:00*%
%TF.ProjectId,Anteres-Receiver,416e7465-7265-4732-9d52-656365697665,1.0.0*%
%TF.SameCoordinates,Original*%
%TF.FileFunction,Paste,Top*%
%TF.FilePolarity,Positive*%
%FSLAX46Y46*%
G04 Gerber Fmt 4.6, Leading zero omitted, Abs format (unit mm)*
G04 Created by KiCad (PCBNEW 8.0.4-8.0.4-0~ubuntu22.04.1) date 2024-08-23 19:00:27*
%MOMM*%
%LPD*%
G01*
G04 APERTURE LIST*
G04 Aperture macros list*
%AMRoundRect*
0 Rectangle with rounded corners*
0 $1 Rounding radius*
0 $2 $3 $4 $5 $6 $7 $8 $9 X,Y pos of 4 corners*
0 Add a 4 corners polygon primitive as box body*
4,1,4,$2,$3,$4,$5,$6,$7,$8,$9,$2,$3,0*
0 Add four circle primitives for the rounded corners*
1,1,$1+$1,$2,$3*
1,1,$1+$1,$4,$5*
1,1,$1+$1,$6,$7*
1,1,$1+$1,$8,$9*
0 Add four rect primitives between the rounded corners*
20,1,$1+$1,$2,$3,$4,$5,0*
20,1,$1+$1,$4,$5,$6,$7,0*
20,1,$1+$1,$6,$7,$8,$9,0*
20,1,$1+$1,$8,$9,$2,$3,0*%
%AMOutline4P*
0 Free polygon, 4 corners , with rotation*
0 The origin of the aperture is its center*
0 number of corners: always 4*
0 $1 to $8 corner X, Y*
0 $9 Rotation angle, in degrees counterclockwise*
0 create outline with 4 corners*
4,1,4,$1,$2,$3,$4,$5,$6,$7,$8,$1,$2,$9*%
G04 Aperture macros list end*
%ADD10RoundRect,0.200000X0.053033X-0.335876X0.335876X-0.053033X-0.053033X0.335876X-0.335876X0.053033X0*%
%ADD11RoundRect,0.249999X-0.290001X0.290001X-0.290001X-0.290001X0.290001X-0.290001X0.290001X0.290001X0*%
%ADD12RoundRect,0.062500X-0.062500X0.350000X-0.062500X-0.350000X0.062500X-0.350000X0.062500X0.350000X0*%
%ADD13RoundRect,0.062500X-0.350000X0.062500X-0.350000X-0.062500X0.350000X-0.062500X0.350000X0.062500X0*%
%ADD14RoundRect,0.225000X0.225000X0.250000X-0.225000X0.250000X-0.225000X-0.250000X0.225000X-0.250000X0*%
%ADD15RoundRect,0.225000X-0.225000X-0.375000X0.225000X-0.375000X0.225000X0.375000X-0.225000X0.375000X0*%
%ADD16RoundRect,0.200000X-0.200000X-0.275000X0.200000X-0.275000X0.200000X0.275000X-0.200000X0.275000X0*%
%ADD17RoundRect,0.218750X-0.256250X0.218750X-0.256250X-0.218750X0.256250X-0.218750X0.256250X0.218750X0*%
%ADD18RoundRect,0.218750X-0.218750X-0.256250X0.218750X-0.256250X0.218750X0.256250X-0.218750X0.256250X0*%
%ADD19RoundRect,0.225000X-0.250000X0.225000X-0.250000X-0.225000X0.250000X-0.225000X0.250000X0.225000X0*%
%ADD20RoundRect,0.200000X-0.275000X0.200000X-0.275000X-0.200000X0.275000X-0.200000X0.275000X0.200000X0*%
%ADD21R,3.000000X2.000000*%
%ADD22Outline4P,-1.500000X-1.150000X1.500000X-0.850000X1.500000X0.850000X-1.500000X1.150000X0.000000*%
%ADD23RoundRect,0.225000X-0.225000X-0.250000X0.225000X-0.250000X0.225000X0.250000X-0.225000X0.250000X0*%
%ADD24RoundRect,0.200000X0.275000X-0.200000X0.275000X0.200000X-0.275000X0.200000X-0.275000X-0.200000X0*%
%ADD25RoundRect,0.218750X0.218750X0.256250X-0.218750X0.256250X-0.218750X-0.256250X0.218750X-0.256250X0*%
%ADD26R,1.400000X1.200000*%
%ADD27RoundRect,0.200000X0.200000X0.275000X-0.200000X0.275000X-0.200000X-0.275000X0.200000X-0.275000X0*%
%ADD28RoundRect,0.225000X0.250000X-0.225000X0.250000X0.225000X-0.250000X0.225000X-0.250000X-0.225000X0*%
%ADD29RoundRect,0.225000X0.017678X-0.335876X0.335876X-0.017678X-0.017678X0.335876X-0.335876X0.017678X0*%
%ADD30R,1.100000X2.000000*%
%ADD31RoundRect,0.218750X0.256250X-0.218750X0.256250X0.218750X-0.256250X0.218750X-0.256250X-0.218750X0*%
%ADD32RoundRect,0.250000X-0.450000X-0.425000X0.450000X-0.425000X0.450000X0.425000X-0.450000X0.425000X0*%
%ADD33RoundRect,0.125000X0.530330X-0.353553X-0.353553X0.530330X-0.530330X0.353553X0.353553X-0.530330X0*%
%ADD34RoundRect,0.125000X0.530330X0.353553X0.353553X0.530330X-0.530330X-0.353553X-0.353553X-0.530330X0*%
G04 APERTURE END LIST*
D10*
%TO.C,R201*%
X155833274Y-94666726D03*
X157000000Y-93500000D03*
%TD*%
D11*
%TO.C,U401*%
X159250000Y-99500000D03*
X158000000Y-99500000D03*
X159250000Y-100750000D03*
X158000000Y-100750000D03*
D12*
X159625000Y-98187500D03*
X159125000Y-98187500D03*
X158625000Y-98187501D03*
X158125000Y-98187500D03*
X157625000Y-98187500D03*
D13*
X156687500Y-99125000D03*
X156687500Y-99625000D03*
X156687501Y-100125000D03*
X156687500Y-100625000D03*
X156687500Y-101125000D03*
D12*
X157625000Y-102062500D03*
X158125000Y-102062500D03*
X158625000Y-102062499D03*
X159125000Y-102062500D03*
X159625000Y-102062500D03*
D13*
X160562500Y-101125000D03*
X160562500Y-100625000D03*
X160562499Y-100125000D03*
X160562500Y-99625000D03*
X160562500Y-99125000D03*
%TD*%
D14*
%TO.C,C409*%
X166349301Y-106228643D03*
X164799301Y-106228643D03*
%TD*%
D15*
%TO.C,D303*%
X145500000Y-103450000D03*
X148800000Y-103450000D03*
%TD*%
%TO.C,D304*%
X145500000Y-100000000D03*
X148800000Y-100000000D03*
%TD*%
D16*
%TO.C,R301*%
X145500000Y-112500000D03*
X147150000Y-112500000D03*
%TD*%
D17*
%TO.C,L406*%
X170750000Y-101424998D03*
X170750000Y-103000000D03*
%TD*%
D18*
%TO.C,L407*%
X170712499Y-106000000D03*
X172287501Y-106000000D03*
%TD*%
D19*
%TO.C,C414*%
X172250000Y-101437499D03*
X172250000Y-102987499D03*
%TD*%
D15*
%TO.C,D302*%
X145500000Y-106900000D03*
X148800000Y-106900000D03*
%TD*%
%TO.C,D305*%
X145500000Y-96550000D03*
X148800000Y-96550000D03*
%TD*%
D20*
%TO.C,R204*%
X171500000Y-94850000D03*
X171500000Y-96500000D03*
%TD*%
D21*
%TO.C,J301*%
X142250000Y-84000000D03*
D22*
X142250000Y-88000000D03*
X142250000Y-92000000D03*
X142250000Y-96000000D03*
X142250000Y-100000000D03*
X142250000Y-104000000D03*
X142250000Y-108000000D03*
X142250000Y-112000000D03*
X142250000Y-116000000D03*
%TD*%
D16*
%TO.C,R302*%
X146000000Y-87750000D03*
X147650000Y-87750000D03*
%TD*%
D23*
%TO.C,C405*%
X162350000Y-98728643D03*
X163900000Y-98728643D03*
%TD*%
%TO.C,C204*%
X170175000Y-90600000D03*
X171725000Y-90600000D03*
%TD*%
D24*
%TO.C,R505*%
X170500000Y-87075000D03*
X170500000Y-85425000D03*
%TD*%
D23*
%TO.C,C412*%
X161549301Y-104203643D03*
X163099301Y-104203643D03*
%TD*%
D15*
%TO.C,D306*%
X145500000Y-93100000D03*
X148800000Y-93100000D03*
%TD*%
D25*
%TO.C,L403*%
X166287501Y-103728643D03*
X164712499Y-103728643D03*
%TD*%
D26*
%TO.C,Y401*%
X153600000Y-99900000D03*
X151400000Y-99900000D03*
X151400000Y-101600000D03*
X153600000Y-101600000D03*
%TD*%
D23*
%TO.C,C404*%
X162350000Y-101728643D03*
X163900000Y-101728643D03*
%TD*%
D24*
%TO.C,R205*%
X173250000Y-99825000D03*
X173250000Y-98175000D03*
%TD*%
D27*
%TO.C,R503*%
X172325000Y-93250000D03*
X170675000Y-93250000D03*
%TD*%
D20*
%TO.C,R203*%
X173250000Y-94825000D03*
X173250000Y-96475000D03*
%TD*%
D23*
%TO.C,C415*%
X170725000Y-104462499D03*
X172275000Y-104462499D03*
%TD*%
D18*
%TO.C,L405*%
X167712500Y-103750000D03*
X169287500Y-103750000D03*
%TD*%
D28*
%TO.C,C411*%
X166250000Y-102003643D03*
X166250000Y-100453643D03*
%TD*%
D15*
%TO.C,D301*%
X145500000Y-110350000D03*
X148800000Y-110350000D03*
%TD*%
D29*
%TO.C,C202*%
X168550699Y-97396357D03*
X169646715Y-96300341D03*
%TD*%
D24*
%TO.C,R502*%
X157000000Y-87075000D03*
X157000000Y-85425000D03*
%TD*%
D29*
%TO.C,C203*%
X167300699Y-96146357D03*
X168396715Y-95050341D03*
%TD*%
D16*
%TO.C,R202*%
X170175000Y-89000000D03*
X171825000Y-89000000D03*
%TD*%
D14*
%TO.C,C401*%
X152775000Y-98250000D03*
X151225000Y-98250000D03*
%TD*%
D30*
%TO.C,D201*%
X178700000Y-95500000D03*
X177000000Y-95500000D03*
X175300000Y-95500000D03*
X175300000Y-100300000D03*
X177000000Y-100300000D03*
X178700000Y-100300000D03*
%TD*%
D18*
%TO.C,L402*%
X156536800Y-104478643D03*
X158111802Y-104478643D03*
%TD*%
D28*
%TO.C,C410*%
X159824301Y-106003643D03*
X159824301Y-104453643D03*
%TD*%
D24*
%TO.C,R504*%
X168750000Y-87075000D03*
X168750000Y-85425000D03*
%TD*%
D18*
%TO.C,L404*%
X161536801Y-105728643D03*
X163111801Y-105728643D03*
%TD*%
D24*
%TO.C,R501*%
X155250000Y-87075000D03*
X155250000Y-85425000D03*
%TD*%
%TO.C,R206*%
X173400000Y-90650000D03*
X173400000Y-89000000D03*
%TD*%
D23*
%TO.C,C402*%
X151250000Y-103750000D03*
X152800000Y-103750000D03*
%TD*%
D14*
%TO.C,C406*%
X152775000Y-96625000D03*
X151225000Y-96625000D03*
%TD*%
D31*
%TO.C,D202*%
X179000000Y-104325002D03*
X179000000Y-102750000D03*
%TD*%
D14*
%TO.C,C413*%
X169275000Y-102000000D03*
X167725000Y-102000000D03*
%TD*%
D18*
%TO.C,L401*%
X156536800Y-105978643D03*
X158111802Y-105978643D03*
%TD*%
D32*
%TO.C,C201*%
X150650000Y-94500000D03*
X153350000Y-94500000D03*
%TD*%
D33*
%TO.C,U201*%
X164022971Y-96078427D03*
X164588656Y-95512741D03*
X165154342Y-94947056D03*
X165720027Y-94381371D03*
X166285713Y-93815685D03*
X166851398Y-93250000D03*
X167417083Y-92684314D03*
X167982769Y-92118629D03*
D34*
X167982769Y-90174085D03*
X167417083Y-89608400D03*
X166851398Y-89042714D03*
X166285713Y-88477029D03*
X165720027Y-87911343D03*
X165154342Y-87345658D03*
X164588656Y-86779973D03*
X164022971Y-86214287D03*
D33*
X162078427Y-86214287D03*
X161512742Y-86779973D03*
X160947056Y-87345658D03*
X160381371Y-87911343D03*
X159815685Y-88477029D03*
X159250000Y-89042714D03*
X158684315Y-89608400D03*
X158118629Y-90174085D03*
D34*
X158118629Y-92118629D03*
X158684315Y-92684314D03*
X159250000Y-93250000D03*
X159815685Y-93815685D03*
X160381371Y-94381371D03*
X160947056Y-94947056D03*
X161512742Y-95512741D03*
X162078427Y-96078427D03*
%TD*%
D16*
%TO.C,R401*%
X162300000Y-100228643D03*
X163950000Y-100228643D03*
%TD*%
D14*
%TO.C,C403*%
X156625000Y-96625000D03*
X155075000Y-96625000D03*
%TD*%
M02*
