M48
; DRILL file {KiCad 8.0.4-8.0.4-0~ubuntu22.04.1} date 2024-08-24T01:42:50-0300
; FORMAT={-:-/ absolute / inch / decimal}
; #@! TF.CreationDate,2024-08-24T01:42:50-03:00
; #@! TF.GenerationSoftware,Kicad,Pcbnew,8.0.4-8.0.4-0~ubuntu22.04.1
; #@! TF.FileFunction,Plated,1,2,PTH
FMAT,2
INCH
; #@! TA.AperFunction,Plated,PTH,ComponentDrill
T1C0.0079
; #@! TA.AperFunction,Plated,PTH,ViaDrill
T2C0.0118
; #@! TA.AperFunction,Plated,PTH,ComponentDrill
T3C0.0157
; #@! TA.AperFunction,Plated,PTH,ComponentDrill
T4C0.0394
%
G90
G05
T1
X6.2057Y-3.9026
X6.2057Y-3.9813
X6.2844Y-3.9026
X6.2844Y-3.9813
T2
X5.5748Y-4.6417
X5.6004Y-3.7008
X5.6004Y-4.1732
X5.6004Y-4.3209
X5.6102Y-3.3858
X5.6102Y-3.5433
X5.6201Y-3.2087
X5.6969Y-4.6417
X5.7087Y-3.4055
X5.7283Y-3.7303
X5.7283Y-3.8681
X5.7283Y-4.0059
X5.7283Y-4.1437
X5.7559Y-3.1732
X5.7677Y-3.7795
X5.7776Y-4.2028
X5.7776Y-4.3406
X5.7897Y-3.6417
X5.7943Y-4.0732
X5.7953Y-3.5551
X5.8661Y-3.7402
X5.878Y-3.5984
X5.8858Y-3.4764
X5.8858Y-3.9961
X5.9055Y-3.9075
X5.9055Y-4.0354
X5.9055Y-4.1142
X5.9055Y-4.1732
X5.9055Y-4.2421
X5.9055Y-4.311
X5.9055Y-4.3799
X5.9055Y-4.4685
X5.9528Y-4.2047
X5.9547Y-3.7697
X5.9646Y-3.5551
X5.9764Y-3.6841
X5.9821Y-3.7125
X5.9921Y-4.2087
X5.9941Y-3.189
X6.0039Y-3.3366
X6.0039Y-3.9665
X6.0157Y-4.126
X6.0197Y-3.378
X6.0236Y-3.4843
X6.0315Y-4.2087
X6.0531Y-3.8533
X6.0551Y-3.1772
X6.0551Y-4.0866
X6.063Y-3.4843
X6.0709Y-3.5512
X6.0709Y-4.2087
X6.0748Y-3.6024
X6.0925Y-3.7598
X6.0945Y-4.0787
X6.0945Y-4.1102
X6.0945Y-4.1417
X6.1024Y-3.4852
X6.116Y-3.9636
X6.1181Y-4.0472
X6.1181Y-4.1654
X6.1181Y-4.1969
X6.1276Y-3.8661
X6.1417Y-3.4852
X6.1417Y-4.0315
X6.1417Y-4.2126
X6.1639Y-3.8509
X6.1654Y-4.0079
X6.1732Y-4.2126
X6.1929Y-4.1417
X6.2008Y-3.7283
X6.2126Y-4.2126
X6.2185Y-3.7978
X6.2244Y-3.8268
X6.2402Y-3.7443
X6.25Y-3.7992
X6.252Y-4.2126
X6.2598Y-4.0787
X6.2598Y-4.1417
X6.2677Y-3.5827
X6.2835Y-4.0551
X6.2913Y-4.2126
X6.2932Y-3.8203
X6.3228Y-4.0394
X6.3228Y-4.0709
X6.3268Y-3.5787
X6.3268Y-4.1378
X6.3287Y-3.3465
X6.3307Y-4.2126
X6.3386Y-3.8386
X6.3543Y-4.063
X6.3701Y-3.8425
X6.3701Y-4.2126
X6.378Y-3.4882
X6.3858Y-4.0472
X6.3878Y-3.3169
X6.3898Y-3.622
X6.3937Y-3.5827
X6.3937Y-4.1339
X6.3976Y-3.4547
X6.4055Y-3.685
X6.4173Y-3.5118
X6.4173Y-3.9075
X6.4173Y-3.9764
X6.4213Y-3.374
X6.4252Y-4.0394
X6.437Y-3.4547
X6.4409Y-3.6417
X6.4488Y-3.6772
X6.4567Y-4.0433
X6.4567Y-4.1102
X6.4567Y-4.1575
X6.4882Y-4.0433
X6.4961Y-3.937
X6.4961Y-3.9685
X6.4961Y-4.0157
X6.5Y-3.6693
X6.5157Y-4.0591
X6.5157Y-4.1102
X6.5197Y-4.1575
X6.5197Y-4.2126
X6.5236Y-3.6457
X6.5236Y-3.9134
X6.5551Y-3.9134
X6.5748Y-4.0512
X6.5748Y-4.2126
X6.5827Y-3.9488
X6.5906Y-3.9252
X6.5906Y-4.1811
X6.5945Y-3.8681
X6.5945Y-3.9764
X6.6063Y-4.1496
X6.6181Y-4.2087
X6.622Y-3.9764
X6.6299Y-3.9488
X6.6339Y-4.0512
X6.6339Y-4.122
X6.6378Y-3.9252
X6.6457Y-3.5787
X6.6457Y-4.1693
X6.6535Y-3.9764
X6.6575Y-3.9488
X6.6575Y-4.2087
X6.6614Y-3.2126
X6.6614Y-3.2756
X6.6732Y-3.622
X6.6772Y-3.9252
X6.6772Y-4.1339
X6.685Y-3.9764
X6.685Y-4.1732
X6.689Y-3.9528
X6.6932Y-3.7785
X6.6969Y-4.2126
X6.7087Y-3.9252
X6.7184Y-3.73
X6.7244Y-3.9528
X6.7283Y-4.2126
X6.7441Y-3.9252
X6.748Y-3.2992
X6.752Y-3.9528
X6.7598Y-3.6063
X6.7677Y-3.4016
X6.7717Y-3.9252
X6.7795Y-3.8898
X6.7835Y-3.9528
X6.7913Y-3.7106
X6.8071Y-3.1732
X6.8071Y-4.2126
X6.8189Y-4.0354
X6.8189Y-4.0669
X6.8189Y-4.0984
X6.8189Y-4.1339
X6.8189Y-4.1614
X6.8228Y-3.9685
X6.8228Y-4.0039
X6.8268Y-3.4685
X6.8307Y-4.1929
X6.8425Y-3.9843
X6.8504Y-4.0157
X6.8504Y-4.0551
X6.8504Y-4.1024
X6.8504Y-4.1417
X6.8504Y-4.1693
X6.8583Y-4.2047
X6.8602Y-3.7106
X6.8602Y-3.7598
X6.8937Y-4.2087
X6.9291Y-4.2087
X6.939Y-3.7008
X6.9488Y-3.4449
X6.9685Y-4.2087
X6.9764Y-3.5512
X6.998Y-3.8189
X7.0039Y-4.1102
X7.0079Y-3.7008
X7.0118Y-4.2087
X7.0394Y-3.4961
X7.0551Y-4.2087
X7.0571Y-3.8189
X7.0591Y-3.1811
X7.063Y-3.5669
X7.063Y-3.6929
X7.063Y-4.1772
X7.0669Y-3.4055
X7.0669Y-3.4724
X7.0669Y-3.6339
X7.0669Y-3.8504
X7.0669Y-4.0039
T3
X6.0531Y-4.4862
X6.0531Y-4.6831
X6.1319Y-4.4862
X6.1319Y-4.6831
X6.2106Y-4.4862
X6.2106Y-4.6831
X6.2894Y-4.4862
X6.2894Y-4.6831
X6.3681Y-4.4862
X6.3681Y-4.6831
X6.4469Y-4.4862
X6.4469Y-4.6831
X6.5256Y-4.4862
X6.5256Y-4.6831
X6.6043Y-4.4862
X6.6043Y-4.6831
X6.6831Y-4.4862
X6.6831Y-4.6831
X6.7618Y-4.6831
T4
X6.1106Y-3.248
X6.2106Y-3.248
X6.3106Y-3.248
X6.4106Y-3.248
X6.5106Y-3.248
X6.6106Y-3.248
X6.7106Y-3.248
M30
